<?xml version="1.0" standalone="no"?>
<!DOCTYPE svg PUBLIC "-//W3C//DTD SVG 20010904//EN"
 "http://www.w3.org/TR/2001/REC-SVG-20010904/DTD/svg10.dtd">
<svg version="1.0" xmlns="http://www.w3.org/2000/svg"
 width="497.000000pt" height="497.000000pt" viewBox="0 0 497.000000 497.000000"
 preserveAspectRatio="xMidYMid meet">
<metadata>
Created by potrace 1.11, written by Peter Selinger 2001-2013
</metadata>
<g transform="translate(0.000000,497.000000) scale(0.100000,-0.100000)"
fill="#000000" stroke="none">
<path d="M1565 4750 c-3 -5 1 -10 9 -10 8 0 18 5 21 10 3 6 -1 10 -9 10 -8 0
-18 -4 -21 -10z"/>
<path d="M1595 4730 c-3 -5 -2 -10 4 -10 5 0 13 5 16 10 3 6 2 10 -4 10 -5 0
-13 -4 -16 -10z"/>
<path d="M1665 4730 c-3 -5 1 -10 9 -10 9 0 16 -5 16 -12 0 -6 2 -9 5 -6 7 7
-5 38 -15 38 -5 0 -12 -4 -15 -10z"/>
<path d="M1505 4720 c-19 -31 -23 -71 -9 -85 21 -20 27 -19 41 10 9 20 8 25
-3 25 -8 0 -14 9 -14 20 0 14 7 20 21 20 11 0 17 5 14 10 -8 13 -42 13 -50 0z"/>
<path d="M1716 4711 c-3 -5 3 -11 14 -14 13 -3 20 0 20 9 0 15 -26 19 -34 5z"/>
<path d="M1696 4625 c-9 -26 -7 -32 5 -12 6 10 9 21 6 23 -2 3 -7 -2 -11 -11z"/>
<path d="M1620 4580 c-6 -27 -9 -54 -5 -61 4 -6 1 -15 -6 -20 -10 -6 -11 -11
-2 -20 17 -17 33 -2 33 30 0 25 22 56 39 56 6 0 4 31 -4 53 -2 6 -13 12 -24
12 -15 0 -22 -11 -31 -50z"/>
<path d="M2267 4502 c-14 -16 -47 -83 -47 -97 0 -14 18 -2 30 20 7 13 18 23
24 22 6 -1 10 5 10 15 -1 10 9 18 29 22 25 5 28 8 17 21 -17 20 -43 19 -63 -3z"/>
<path d="M946 4474 c-15 -14 -22 -34 -12 -34 2 0 11 11 20 25 19 28 15 33 -8
9z"/>
<path d="M864 4434 c-72 -51 -113 -117 -116 -190 -2 -27 -7 -52 -13 -56 -7 -5
-6 -11 1 -15 6 -5 14 -15 17 -23 4 -10 6 -8 6 7 1 30 29 20 37 -13 3 -13 10
-24 15 -24 14 0 11 -24 -7 -46 -15 -18 -15 -18 -11 11 5 26 3 27 -8 12 -16
-23 -24 -22 -18 3 7 28 -1 25 -22 -6 -9 -15 -12 -23 -6 -20 6 4 11 0 11 -9 0
-9 5 -13 10 -10 6 3 10 -2 10 -12 0 -14 2 -15 9 -4 5 7 14 10 20 7 13 -9 15
-43 2 -51 -6 -3 -4 -17 4 -32 9 -17 11 -31 5 -38 -13 -16 -1 -53 20 -60 10 -3
29 -16 42 -28 14 -12 35 -28 46 -36 12 -8 19 -17 17 -21 -2 -3 30 -28 71 -56
69 -46 87 -64 64 -64 -5 0 -10 4 -10 9 0 17 -101 74 -136 77 -32 2 -33 1 -22
-19 19 -37 70 -96 106 -124 27 -20 36 -23 43 -12 5 9 0 22 -14 38 l-22 24 21
-5 c12 -3 28 -2 35 3 15 9 56 -10 43 -20 -5 -3 -18 -23 -29 -43 -22 -42 -24
-43 -115 -23 -36 8 -76 14 -90 14 l-25 -1 25 -8 c31 -10 12 -13 -64 -10 -48 2
-58 -1 -53 -12 4 -11 -1 -14 -17 -11 -30 6 -96 -34 -96 -58 0 -10 6 -19 14
-19 20 0 31 -19 18 -32 -8 -8 -5 -18 8 -36 22 -27 28 -54 8 -34 -16 16 -25 15
-32 -4 -3 -8 -2 -13 3 -9 5 3 23 -3 40 -12 21 -13 29 -24 27 -38 -4 -24 24
-27 62 -6 12 6 27 9 32 6 15 -9 2 -25 -14 -19 -7 3 -16 -3 -20 -12 -8 -22 2
-33 14 -14 7 11 9 8 8 -12 -1 -15 -5 -25 -9 -22 -4 2 -10 -11 -13 -30 -4 -19
-14 -37 -22 -40 -22 -8 -24 -8 -24 9 0 8 5 15 10 15 6 0 10 5 10 11 0 5 -4 8
-9 4 -5 -3 -12 -1 -15 4 -8 13 -57 -11 -52 -26 3 -6 -2 -19 -10 -30 -8 -10
-14 -13 -13 -8 4 30 -2 44 -16 39 -10 -4 -13 -13 -10 -25 4 -13 1 -19 -9 -19
-10 0 -16 9 -16 25 0 18 -5 25 -19 25 -47 0 -66 66 -37 123 8 15 12 27 8 28
-4 0 -16 2 -27 4 -11 2 -22 -1 -26 -6 -7 -12 -39 -1 -39 13 0 6 9 8 20 5 10
-3 27 1 37 9 21 16 57 19 48 3 -4 -6 -14 -8 -24 -5 -12 5 -11 2 3 -9 27 -20
37 -19 43 6 4 12 11 18 20 15 8 -3 11 -2 8 3 -3 5 -1 12 5 16 18 11 11 35 -14
45 -23 9 -24 12 -19 70 3 35 1 60 -4 60 -18 0 -94 -60 -88 -70 3 -5 1 -11 -5
-15 -16 -10 -12 -43 8 -55 12 -8 13 -13 5 -16 -7 -3 -15 -5 -19 -4 -4 1 -10
-4 -15 -11 -15 -24 -23 1 -11 33 14 37 4 54 -20 36 -22 -18 -34 -59 -16 -56 7
2 12 -3 11 -9 -2 -7 2 -13 8 -13 8 0 7 -6 -2 -17 -10 -11 -10 -14 -1 -9 13 8
15 -6 6 -41 -4 -14 -14 -23 -26 -23 -19 0 -19 -1 -5 -24 22 -34 18 -64 -8 -59
-17 3 -17 2 3 -6 12 -6 29 -8 38 -4 12 4 14 0 8 -23 -9 -39 -12 -41 -23 -13
-9 23 -10 22 -10 -10 -1 -24 -5 -32 -15 -28 -8 3 -17 -1 -20 -9 -9 -24 -7 -31
4 -14 8 12 10 11 10 -7 0 -29 17 -38 37 -21 9 7 14 8 11 3 -4 -6 -3 -17 2 -25
6 -10 4 -20 -6 -31 -11 -12 -12 -22 -4 -43 12 -34 39 -45 55 -23 11 16 14 16
25 2 10 -12 10 -19 2 -27 -25 -25 34 -67 166 -118 29 -11 44 -30 25 -30 -5 0
-46 -5 -92 -10 -113 -13 -150 -26 -157 -56 -3 -13 -10 -22 -14 -19 -14 9 -38
-6 -43 -25 -3 -11 0 -21 6 -23 6 -2 -4 -14 -22 -26 -18 -13 -35 -21 -38 -17
-8 8 -43 -12 -43 -25 0 -6 8 -8 18 -5 13 4 19 1 19 -9 0 -14 -25 -20 -74 -18
-7 1 -13 -8 -13 -18 0 -10 -7 -19 -15 -19 -8 0 -15 -5 -15 -11 0 -5 -4 -8 -9
-5 -5 3 -14 -1 -21 -8 -6 -8 -20 -13 -31 -11 -10 2 -19 1 -20 -3 -6 -40 -5
-101 2 -117 6 -15 8 -16 8 -4 1 9 8 19 16 23 8 3 15 12 15 20 0 8 13 21 29 29
26 13 28 13 23 -5 -2 -10 -17 -25 -33 -33 -15 -8 -30 -23 -33 -33 -4 -11 -17
-24 -31 -30 -17 -8 -23 -17 -19 -29 5 -17 5 -17 -6 0 -8 13 -9 26 -1 48 10 30
6 59 -9 59 -11 0 -20 -26 -20 -55 0 -13 -5 -27 -11 -30 -7 -5 -8 -32 -3 -78 3
-40 7 -82 8 -94 0 -13 4 -23 9 -23 4 0 7 -7 7 -15 0 -16 51 -94 61 -95 4 0 9
10 13 22 4 18 8 20 18 10 10 -10 10 -15 -2 -22 -10 -6 -5 -9 18 -8 23 1 37 -6
53 -26 11 -14 26 -26 32 -25 32 4 46 -2 41 -16 -4 -8 -11 -12 -18 -9 -6 3 -2
-2 8 -10 11 -9 33 -16 48 -16 l29 0 -22 29 c-19 25 -20 34 -11 58 6 15 10 51
9 80 -2 28 1 49 5 47 4 -3 8 0 8 5 0 6 5 11 11 11 7 0 20 10 30 22 13 14 19
16 19 7 0 -12 2 -12 9 0 8 12 11 9 16 -12 6 -24 1 -33 -39 -68 -51 -45 -59
-75 -23 -84 19 -5 23 -11 19 -36 -6 -40 23 -40 32 1 3 17 12 30 19 30 8 0 26
10 41 21 26 20 147 75 231 105 22 7 58 14 80 14 23 0 46 5 53 12 9 9 12 8 12
-4 0 -9 -6 -18 -12 -21 -9 -3 -5 -11 10 -25 32 -28 21 -58 -26 -80 -21 -9 -41
-23 -45 -29 -4 -7 -15 -13 -22 -13 -8 0 -15 -4 -15 -8 0 -5 -37 -7 -82 -5 -52
2 -76 0 -63 -5 15 -7 6 -11 -40 -16 -101 -12 -125 -23 -125 -57 0 -16 -3 -28
-7 -28 -5 1 -19 1 -33 0 -20 -1 -22 -3 -10 -11 8 -5 11 -10 5 -10 -5 0 -1 -6
10 -12 12 -7 80 -14 163 -16 l142 -4 0 25 c0 38 14 40 35 4 31 -53 63 -77 50
-38 -5 16 1 20 42 26 26 3 59 9 73 12 18 4 8 -7 -35 -40 -33 -25 -64 -43 -69
-40 -5 4 -6 1 -2 -5 4 -7 -9 -21 -31 -35 -100 -64 -171 -149 -141 -169 10 -6
10 -8 -2 -9 -8 -1 -21 -1 -27 0 -22 3 -14 -16 8 -22 17 -5 19 -9 10 -26 -6
-11 -11 -30 -12 -43 0 -13 -3 -17 -6 -10 -2 6 -10 9 -16 5 -6 -4 -8 0 -4 10 9
24 -1 21 -24 -5 -20 -25 -25 -48 -9 -48 5 0 8 -17 6 -37 -3 -31 -8 -39 -26
-41 -13 -2 -19 -7 -13 -10 7 -4 1 -15 -15 -26 -14 -11 -22 -14 -18 -8 11 19
-5 14 -19 -5 -10 -13 -10 -19 1 -30 17 -17 43 -16 50 2 7 17 24 10 24 -10 0
-7 -11 -16 -25 -19 -14 -4 -23 -11 -20 -16 3 -6 2 -10 -4 -10 -5 0 -13 5 -16
10 -3 5 -14 9 -23 9 -15 -1 -15 -2 1 -6 17 -4 21 -19 17 -57 -3 -28 9 -66 21
-66 6 0 9 7 5 15 -3 9 0 15 10 15 12 0 12 -4 4 -20 -6 -11 -7 -20 -3 -20 4 0
9 -15 9 -33 1 -17 -1 -24 -3 -14 -2 9 -8 17 -13 17 -12 0 9 -58 23 -67 7 -4
18 -8 25 -9 8 -2 21 -5 30 -9 14 -5 14 -7 2 -15 -11 -7 -12 -10 -2 -10 7 0 11
-4 8 -9 -3 -4 3 -16 14 -26 11 -10 20 -14 20 -10 0 5 7 0 16 -11 8 -10 13 -13
9 -7 -11 22 23 14 51 -12 19 -17 37 -24 63 -24 20 1 67 -2 106 -6 l69 -8 -32
38 c-17 22 -30 41 -27 43 2 2 19 -5 38 -17 51 -31 105 -28 156 9 28 21 49 29
62 25 10 -4 19 -10 19 -14 0 -10 44 -9 52 2 9 15 90 18 115 5 30 -15 37 -6 25
34 -6 18 -9 53 -8 78 2 25 -2 51 -8 59 -15 20 60 -22 103 -58 l33 -27 -19 -70
c-10 -38 -18 -94 -17 -124 6 -129 7 -146 17 -170 6 -14 9 -31 8 -37 -1 -7 3
-13 8 -13 6 0 8 -7 5 -15 -4 -8 -1 -15 5 -15 6 0 11 -8 11 -18 0 -17 8 -31 60
-94 26 -33 110 -90 149 -103 20 -6 23 -5 17 10 -5 15 -2 16 31 10 38 -8 60 -9
78 -4 6 2 33 -1 60 -5 42 -6 59 -3 103 17 46 21 59 23 90 15 20 -6 41 -17 45
-25 7 -12 11 -12 24 -1 13 10 17 11 21 0 6 -20 77 -52 100 -45 12 3 30 2 39
-3 10 -4 22 -8 27 -8 5 -1 12 -10 16 -21 7 -17 9 -18 14 -4 8 18 60 23 87 8
12 -6 19 -5 22 4 3 6 6 3 6 -7 1 -18 2 -19 14 -3 11 15 18 16 67 6 91 -20 201
-16 286 9 38 12 237 2 275 -13 9 -3 37 -1 64 5 26 6 50 8 53 5 3 -2 11 4 19
15 9 13 26 20 48 20 42 0 65 9 65 24 0 7 20 17 45 24 25 7 45 16 45 21 0 5 7
17 16 25 14 15 13 17 -11 26 -14 5 -42 21 -63 35 -20 14 -47 25 -60 25 -26 0
-84 39 -61 41 8 0 -8 7 -36 14 -52 15 -99 58 -90 83 3 7 0 10 -5 7 -6 -4 -10
6 -10 22 0 22 2 25 10 13 9 -13 10 -13 10 0 -1 71 -42 170 -81 192 -38 22 -52
61 -44 119 8 54 0 74 -57 139 -35 39 -39 49 -37 88 4 50 -19 76 -59 69 -12 -2
-25 0 -28 5 -3 5 -13 7 -21 4 -8 -3 -11 -1 -8 4 3 6 2 10 -4 10 -6 0 -15 -9
-21 -20 -6 -11 -18 -19 -28 -19 -15 1 -15 2 0 6 21 5 32 33 13 33 -7 0 -16 -4
-20 -10 -3 -5 -12 -7 -20 -3 -10 3 -15 -1 -15 -13 -1 -18 -1 -18 -11 -1 -5 9
-7 22 -4 27 3 6 -4 10 -17 10 -17 0 -19 -3 -9 -9 19 -12 6 -42 -14 -35 -9 4
-14 12 -12 18 3 7 -12 10 -46 7 -55 -4 -109 -34 -100 -57 3 -8 -1 -14 -11 -14
-9 0 -16 5 -16 12 0 6 -9 3 -20 -7 -11 -10 -20 -24 -20 -31 0 -6 -15 -17 -32
-23 -26 -9 -30 -14 -18 -21 12 -8 11 -10 -7 -10 -12 0 -29 -12 -40 -30 l-19
-30 -13 50 c-7 27 -17 52 -22 56 -5 3 -28 33 -50 66 -44 65 -96 117 -116 118
-7 0 -13 5 -13 10 0 6 -7 10 -15 10 -8 0 -15 4 -15 8 0 12 -86 33 -163 39 -44
4 -82 1 -108 -7 -37 -13 -39 -15 -23 -27 10 -7 27 -13 38 -13 12 0 30 -7 40
-15 19 -14 19 -15 -7 -15 -15 0 -27 4 -27 8 0 18 -60 30 -98 19 -24 -7 -31
-12 -19 -15 25 -5 21 -22 -5 -22 -60 0 -135 -87 -193 -224 -16 -37 -34 -66
-42 -66 -8 0 -11 -4 -8 -10 10 -16 -3 -12 -45 16 -40 27 -51 44 -28 44 9 0 9
3 0 12 -10 10 1 25 47 73 77 78 102 125 109 201 4 57 -12 143 -26 130 -3 -3
-12 0 -21 8 -9 8 -25 16 -36 18 -15 3 -20 11 -19 33 0 17 -7 36 -15 43 -14 11
-14 11 2 6 13 -5 16 -2 11 11 -5 12 -3 16 6 13 7 -2 14 -12 16 -22 1 -10 8
-24 15 -30 9 -8 10 -8 5 1 -3 6 0 14 6 16 10 4 10 6 1 6 -7 1 -13 6 -13 12 0
5 4 7 10 4 6 -3 7 1 4 9 -3 9 -10 14 -14 11 -4 -3 -10 2 -14 10 -7 20 -36 19
-36 0 0 -8 -7 -15 -16 -15 -11 0 -15 6 -11 20 3 12 0 20 -8 20 -7 0 -15 10
-19 23 -9 35 -7 38 14 27 16 -9 20 -8 20 5 0 17 -7 18 -67 6 -39 -8 -41 -7
-32 10 7 15 6 19 -6 19 -13 0 -14 4 -5 20 10 18 8 20 -17 19 -15 0 -22 -3 -15
-6 22 -9 13 -20 -13 -15 -14 2 -25 9 -25 14 0 5 -4 7 -9 4 -4 -3 -6 -18 -4
-33 3 -17 1 -23 -4 -16 -5 7 -22 10 -38 8 -17 -2 -33 -4 -36 -4 -13 -2 -101
-92 -95 -98 3 -3 12 0 21 7 9 7 19 10 22 6 12 -11 -20 -27 -44 -21 -12 3 -23
1 -25 -3 -7 -17 -73 -56 -100 -59 -16 -2 -42 -10 -59 -19 -17 -8 -36 -13 -42
-11 -7 3 -4 8 8 13 28 11 40 24 64 72 25 49 25 52 6 52 -23 0 -18 13 18 42 23
18 51 28 91 33 31 4 63 13 70 21 8 7 25 16 40 20 14 3 29 10 32 15 3 5 -3 6
-12 2 -12 -4 -15 -3 -10 5 5 9 -9 12 -51 12 l-58 0 36 25 c47 31 111 112 145
181 28 57 47 180 38 237 -8 47 -46 151 -58 159 -6 4 -8 8 -3 8 10 0 -20 57
-43 80 -13 13 -20 15 -24 7 -3 -7 -4 -2 -1 9 6 23 -48 80 -104 109 -40 20 -39
26 1 14 43 -12 115 -12 123 1 3 6 19 10 36 10 19 0 29 5 29 15 0 8 -9 15 -21
15 -11 0 -18 4 -15 9 8 12 57 1 63 -15 6 -16 28 -8 79 30 120 91 187 248 162
381 -4 22 -10 55 -14 74 -8 45 -51 135 -75 157 -10 9 -19 22 -19 27 0 6 8 3
18 -6 24 -22 33 -21 25 1 -6 15 -4 15 9 4 13 -10 25 -11 57 -2 22 6 40 15 38
19 -3 14 57 62 71 56 18 -7 14 12 -5 25 -16 10 -15 10 4 5 16 -4 23 -1 28 14
5 17 37 35 58 32 4 -1 7 4 7 9 0 6 6 10 13 10 8 0 22 9 32 20 15 16 26 19 49
14 45 -10 116 -12 110 -3 -2 5 18 5 46 2 35 -4 50 -2 50 6 0 7 9 9 25 5 16 -4
25 -2 25 5 0 7 6 11 14 9 11 -3 44 20 109 77 12 10 47 11 105 2 18 -2 35 0 38
4 3 5 11 6 17 2 7 -4 6 1 -2 11 -17 20 -33 261 -19 286 9 19 30 134 31 178 0
26 4 31 19 26 10 -3 18 -1 18 5 0 15 -34 31 -65 31 -15 0 -44 13 -64 28 -52
41 -61 45 -61 29 0 -8 14 -20 30 -27 17 -7 30 -17 30 -22 0 -5 -4 -6 -10 -3
-5 3 -10 1 -10 -4 0 -6 10 -11 23 -11 38 0 71 -44 70 -92 -1 -23 -6 -44 -11
-47 -5 -3 -12 -16 -16 -27 -4 -12 -18 -34 -32 -49 -15 -17 -23 -34 -19 -45 7
-21 -41 -64 -62 -55 -8 2 -12 1 -9 -4 13 -20 -98 -47 -175 -42 -20 1 -79 51
-61 51 7 0 11 4 8 8 -2 4 0 14 6 22 8 12 9 12 4 -2 -3 -10 -1 -18 4 -18 15 0
23 21 11 33 -16 16 -14 27 7 27 15 1 15 3 -4 18 -11 10 -19 24 -17 32 3 9 -2
7 -12 -5 -15 -19 -16 -19 -22 3 -4 16 -8 20 -13 11 -5 -7 -15 -9 -26 -4 -22 9
-34 11 -91 13 -34 2 -43 6 -43 20 0 14 -2 15 -10 2 -7 -12 -13 -9 -32 15 -54
70 -117 130 -165 157 -29 17 -56 34 -59 39 -3 5 -11 9 -19 9 -14 0 -15 -16 0
-40 8 -13 7 -13 -11 0 -10 8 -21 18 -24 21 -3 4 -20 15 -38 25 -19 11 -32 22
-30 25 1 4 -8 16 -22 28 -21 17 -22 20 -7 21 24 0 11 20 -13 20 -10 0 -22 9
-25 20 -7 22 -38 33 -75 26 -14 -2 -28 -5 -32 -5 -17 -2 -7 -19 13 -24 20 -5
20 -7 5 -22 -10 -10 -24 -14 -33 -10 -15 5 -15 7 -3 16 12 7 11 10 -8 15 -17
5 -21 11 -16 28 5 17 4 19 -7 9 -7 -7 -21 -13 -30 -13 -10 0 -20 -6 -22 -12
-4 -10 -8 -9 -16 2 -9 13 -12 12 -17 -7 -9 -32 -31 -36 -37 -7 -3 16 1 28 9
31 8 3 14 9 14 14 0 5 -11 3 -25 -3 -14 -6 -25 -16 -25 -23 0 -17 -40 -56 -50
-50 -5 3 -6 13 -3 21 4 11 8 12 13 4 4 -7 8 -1 8 14 0 26 -1 26 -19 10 -11 -9
-19 -23 -19 -31 0 -7 -7 -13 -15 -13 -18 0 -19 23 -4 52 6 11 9 21 7 22 -2 2
-30 -16 -64 -40z m293 -31 c-9 -9 -19 -14 -23 -11 -10 10 6 28 24 28 15 0 15
-1 -1 -17z m-234 -28 c-3 -9 -8 -14 -10 -11 -3 3 -2 9 2 15 9 16 15 13 8 -4z
m67 -23 c0 -13 -12 -22 -22 -16 -10 6 -1 24 13 24 5 0 9 -4 9 -8z m160 -2 c0
-5 -9 -10 -20 -10 -11 0 -20 -5 -20 -12 0 -6 -3 -9 -6 -5 -4 3 -4 13 -1 22 7
16 47 21 47 5z m45 0 c-3 -5 -10 -10 -16 -10 -5 0 -9 5 -9 10 0 6 7 10 16 10
8 0 12 -4 9 -10z m-275 -30 c-11 -20 -30 -28 -30 -12 0 11 22 32 32 32 5 0 4
-9 -2 -20z m140 0 c0 -5 -7 -10 -15 -10 -8 0 -15 5 -15 10 0 6 7 10 15 10 8 0
15 -4 15 -10z m-40 -10 c0 -5 -6 -10 -13 -10 -7 0 -14 -13 -15 -29 -2 -22 3
-30 20 -35 13 -3 25 -1 26 4 5 15 32 40 43 40 17 0 9 -19 -11 -25 -11 -3 -20
-13 -20 -20 0 -15 39 -41 53 -37 5 2 7 -3 4 -10 -2 -7 2 -26 10 -41 8 -16 12
-35 9 -43 -3 -8 -1 -14 4 -14 5 0 8 -6 6 -12 -1 -7 -1 -10 1 -5 7 12 23 8 23
-6 0 -8 -11 -20 -25 -27 -16 -8 -23 -20 -20 -29 2 -9 0 -23 -5 -31 -6 -10 -10
-11 -10 -3 0 15 -21 13 -33 -2 -5 -6 -7 0 -4 13 4 16 1 22 -13 22 -11 0 -17
-7 -16 -17 1 -12 -7 -18 -21 -19 -12 -1 -20 3 -17 7 3 5 -1 9 -8 9 -10 0 -10
2 1 9 22 14 -4 22 -34 11 -15 -6 -33 -7 -41 -2 -12 7 -12 11 0 27 12 16 16 17
30 6 25 -21 19 -1 -7 23 -22 20 -26 21 -45 8 -19 -13 -22 -13 -22 1 0 9 7 22
15 31 18 18 19 32 3 42 -6 4 -8 3 -4 -4 3 -6 1 -14 -5 -17 -21 -13 -21 4 0 31
26 33 27 45 4 37 -12 -4 -10 1 6 16 14 12 35 24 48 27 13 4 23 12 23 20 0 8 5
14 11 14 5 0 7 5 4 10 -4 6 -1 17 5 25 14 17 40 20 40 5z m-91 -36 c-6 -7 -15
-11 -21 -8 -5 3 -4 12 3 20 6 7 15 11 21 8 5 -3 4 -12 -3 -20z m211 16 c0 -5
-7 -10 -16 -10 -8 0 -12 5 -9 10 3 6 10 10 16 10 5 0 9 -4 9 -10z m121 -3 c40
5 55 1 92 -20 50 -30 89 -71 117 -128 25 -47 25 -68 3 -85 -11 -8 -13 -13 -5
-14 17 0 15 -20 -3 -20 -8 0 -15 6 -15 13 0 8 -4 7 -10 -3 -8 -13 -10 -12 -10
3 0 10 -4 15 -10 12 -5 -3 -10 1 -10 9 0 9 -5 16 -11 16 -5 0 -7 5 -3 12 4 7
3 8 -5 4 -9 -6 -9 -11 0 -22 9 -11 9 -14 0 -14 -18 0 -91 39 -114 61 -12 10
-27 19 -35 19 -8 0 -12 6 -8 15 3 9 0 15 -9 15 -8 0 -15 -9 -15 -19 0 -24 -12
-32 -30 -21 -10 6 -7 13 15 32 25 22 26 27 15 47 -8 15 -8 21 -1 17 18 -11 13
6 -6 19 -15 11 -16 15 -3 31 14 16 13 17 -2 11 -10 -3 -18 -3 -18 2 0 14 14
21 23 12 5 -5 31 -7 58 -4z m-411 -16 c0 -12 -29 -35 -36 -28 -11 10 5 37 21
37 8 0 15 -4 15 -9z m305 -1 c-3 -5 -12 -10 -18 -10 -7 0 -6 4 3 10 19 12 23
12 15 0z m15 -37 c0 -9 -28 -32 -33 -27 -10 10 3 31 18 31 8 0 15 -2 15 -4z
m-320 -13 c0 -5 -6 -10 -12 -10 -10 0 -9 -3 1 -9 14 -9 7 -31 -10 -31 -10 0
-12 43 -2 53 10 10 23 8 23 -3z m733 -38 c10 -11 13 -23 8 -31 -6 -10 -17 -4
-45 23 -20 20 -36 41 -36 46 0 12 53 -15 73 -38z m32 8 c3 -5 1 -10 -4 -10 -6
0 -11 5 -11 10 0 6 2 10 4 10 3 0 8 -4 11 -10z m-435 -34 c0 -2 -7 -7 -16 -10
-8 -3 -12 -2 -9 4 6 10 25 14 25 6z m-9 -53 c13 -16 12 -17 -3 -4 -10 7 -18
15 -18 17 0 8 8 3 21 -13z m396 -15 c-3 -7 -5 -2 -5 12 0 14 2 19 5 13 2 -7 2
-19 0 -25z m-272 -28 c-3 -5 -10 -10 -16 -10 -5 0 -9 5 -9 10 0 6 7 10 16 10
8 0 12 -4 9 -10z m-65 -15 c0 -8 -7 -15 -15 -15 -16 0 -20 12 -8 23 11 12 23
8 23 -8z m-390 -9 c0 -23 -16 -27 -17 -5 -1 10 2 19 8 19 5 0 9 -6 9 -14z
m340 -17 c13 -9 13 -10 0 -8 -26 3 -40 -1 -40 -10 0 -5 9 -7 20 -4 11 3 20 0
20 -6 0 -10 -7 -13 -26 -10 -4 0 -11 -5 -15 -13 -6 -9 -9 -7 -9 9 0 48 18 64
50 42z m230 3 c0 -4 -9 -8 -20 -9 -11 -1 -20 2 -20 8 0 5 9 9 20 9 11 0 20 -4
20 -8z m-535 -32 c-5 -8 -11 -8 -17 -2 -6 6 -7 16 -3 22 5 8 11 8 17 2 6 -6 7
-16 3 -22z m379 -10 c7 0 13 -7 13 -15 0 -8 -2 -15 -3 -15 -8 0 -34 33 -33 43
0 9 2 8 6 0 2 -7 10 -13 17 -13z m-54 -4 c0 -2 -8 -10 -17 -17 -16 -13 -17
-12 -4 4 13 16 21 21 21 13z m150 -15 c0 -11 -5 -23 -12 -27 -7 -4 -8 -3 -4 5
4 6 2 18 -4 26 -10 12 -9 15 4 15 9 0 16 -8 16 -19z m-36 -17 c3 -8 2 -12 -4
-9 -6 3 -10 10 -10 16 0 14 7 11 14 -7z m73 -6 c-3 -8 -6 -5 -6 6 -1 11 2 17
5 13 3 -3 4 -12 1 -19z m47 13 c3 -5 -3 -11 -15 -14 -16 -4 -18 -3 -8 9 13 16
16 17 23 5z m56 0 c0 -12 -28 -22 -34 -12 -3 5 -3 11 1 15 9 9 33 7 33 -3z
m67 -21 c1 -11 -4 -20 -13 -20 -17 0 -18 12 -2 28 7 7 12 12 13 12 0 0 1 -9 2
-20z m-554 -12 c-2 -5 -13 -8 -24 -8 -10 0 -19 3 -19 8 0 4 11 7 24 7 13 0 22
-3 19 -7z m124 6 c-3 -3 -12 -4 -19 -1 -8 3 -5 6 6 6 11 1 17 -2 13 -5z m240
-10 c-3 -3 -12 -4 -19 -1 -8 3 -5 6 6 6 11 1 17 -2 13 -5z m-325 -48 c-3 -26
1 -37 19 -50 13 -9 35 -16 49 -16 20 0 22 -2 10 -10 -13 -9 -13 -10 0 -10 12
-1 11 -3 -3 -11 -12 -7 -23 -6 -39 5 -12 9 -30 16 -40 16 -10 0 -18 5 -18 10
0 6 -7 10 -15 10 -9 0 -20 11 -25 25 -12 30 9 60 43 63 20 1 22 -2 19 -32z
m266 17 c-2 -9 -9 -18 -16 -19 -7 -1 -8 0 -2 3 5 2 10 9 10 14 0 6 -5 7 -12 3
-7 -4 -8 -3 -4 4 11 18 28 14 24 -5z m61 -4 c-16 -10 -23 -4 -14 10 3 6 11 8
17 5 6 -4 5 -9 -3 -15z m144 0 c6 -23 -18 -38 -35 -21 -8 8 -8 15 2 27 17 20
27 19 33 -6z m-63 -13 c0 -7 -11 -16 -25 -18 -29 -6 -36 18 -7 25 29 8 32 7
32 -7z m125 -7 c0 -8 -10 -15 -22 -15 -26 -1 -28 1 -10 21 14 17 32 14 32 -6z
m-331 -27 c3 -5 -1 -9 -9 -9 -8 0 -15 4 -15 9 0 4 4 8 9 8 6 0 12 -4 15 -8z
m66 4 c0 -2 -7 -6 -15 -10 -8 -3 -15 -1 -15 4 0 6 7 10 15 10 8 0 15 -2 15 -4z
m75 -16 c-3 -5 -11 -10 -16 -10 -6 0 -7 5 -4 10 3 6 11 10 16 10 6 0 7 -4 4
-10z m-32 -20 c3 -11 1 -18 -4 -14 -5 3 -9 12 -9 20 0 20 7 17 13 -6z m191 -5
c2 -7 -1 -16 -9 -18 -8 -4 -15 3 -17 18 -5 25 16 25 26 0z m-297 9 c-3 -3 -12
-4 -19 -1 -8 3 -5 6 6 6 11 1 17 -2 13 -5z m216 -1 c11 -10 -13 -32 -28 -27
-8 3 -11 12 -8 20 5 15 25 19 36 7z m122 -33 c-4 -12 -9 -19 -12 -17 -3 3 -2
15 2 27 4 12 9 19 12 17 3 -3 2 -15 -2 -27z m-315 16 c0 -3 -4 -8 -10 -11 -5
-3 -10 -1 -10 4 0 6 5 11 10 11 6 0 10 -2 10 -4z m360 -19 c0 -8 -7 -14 -15
-14 -11 0 -12 4 -4 14 6 7 13 13 15 13 2 0 4 -6 4 -13z m-295 -7 c-3 -5 -13
-10 -21 -10 -8 0 -14 5 -14 10 0 6 9 10 21 10 11 0 17 -4 14 -10z m65 -20 c0
-5 -5 -10 -11 -10 -5 0 -7 5 -4 10 3 6 8 10 11 10 2 0 4 -4 4 -10z m70 0 c0
-5 -5 -10 -11 -10 -5 0 -7 5 -4 10 3 6 8 10 11 10 2 0 4 -4 4 -10z m860 -10
c0 -5 -4 -10 -10 -10 -5 0 -10 5 -10 10 0 6 5 10 10 10 6 0 10 -4 10 -10z
m-750 -10 c0 -5 -5 -10 -11 -10 -5 0 -7 5 -4 10 3 6 8 10 11 10 2 0 4 -4 4
-10z m-45 -21 c-10 -15 -25 -10 -19 6 4 8 10 12 15 9 5 -3 7 -10 4 -15z m106
-12 c-16 -16 -26 0 -10 19 9 11 15 12 17 4 2 -6 -1 -17 -7 -23z m-221 -1 c0
-3 -4 -8 -10 -11 -5 -3 -10 -1 -10 4 0 6 5 11 10 11 6 0 10 -2 10 -4z m60 -26
c0 -5 -2 -10 -4 -10 -3 0 -8 5 -11 10 -3 6 -1 10 4 10 6 0 11 -4 11 -10z m116
-17 c-10 -10 -19 5 -10 18 6 11 8 11 12 0 2 -7 1 -15 -2 -18z m-391 -112 c-9
-8 -55 42 -55 58 1 11 11 4 30 -18 16 -19 27 -37 25 -40z m335 25 c0 -11 -19
-15 -25 -6 -3 5 1 10 9 10 9 0 16 -2 16 -4z m-530 -19 c0 -2 -11 -16 -25 -31
-20 -22 -37 -29 -80 -32 -67 -6 -83 1 -59 27 11 12 30 19 55 19 21 0 40 4 43
8 4 8 66 16 66 9z m587 -53 c-3 -3 -12 -4 -19 -1 -8 3 -5 6 6 6 11 1 17 -2 13
-5z m-42 -13 c-6 -5 -23 -13 -40 -16 l-30 -7 25 15 c28 17 59 22 45 8z m-734
-30 c-11 -7 -10 -11 5 -20 13 -8 15 -14 7 -17 -21 -9 -2 -34 26 -35 23 0 24
-1 6 -9 -11 -5 -15 -9 -9 -9 7 -1 14 -7 17 -14 3 -8 -2 -13 -13 -12 -23 1 -50
23 -50 40 0 18 -63 71 -68 57 -7 -21 -42 -14 -42 9 0 15 5 19 18 15 52 -15 68
-16 87 -2 11 8 22 12 25 10 2 -3 -2 -9 -9 -13z m308 -37 c11 -11 -7 -10 -34 3
l-30 14 30 -6 c16 -4 32 -9 34 -11z m-559 -4 c0 -5 -4 -10 -10 -10 -5 0 -10 5
-10 10 0 6 5 10 10 10 6 0 10 -4 10 -10z m227 -36 c-7 -7 -37 7 -37 17 0 6 9
5 21 -1 11 -7 19 -14 16 -16z m302 4 c42 -25 91 -68 91 -80 0 -4 -7 -8 -15 -8
-11 0 -14 -7 -9 -25 13 -53 11 -60 -26 -63 -33 -3 -34 -3 -19 15 9 10 19 24
23 30 11 20 -42 12 -61 -9 -14 -16 -14 -18 1 -24 20 -8 11 -24 -15 -24 -16 0
-18 5 -14 30 5 26 1 32 -20 40 -40 15 -54 11 -22 -6 31 -17 27 -39 -5 -28 -11
3 -27 7 -34 8 -14 2 -43 34 -44 48 0 3 15 4 33 1 17 -3 29 -1 25 3 -12 12 -88
14 -88 2 0 -6 -6 -5 -15 2 -13 11 -13 15 -3 21 7 5 13 16 13 26 0 14 8 18 35
18 19 0 41 4 48 8 20 14 2 29 -27 23 -19 -5 -22 -4 -11 4 28 18 120 12 159
-12z m-219 -124 c0 -2 -9 0 -20 6 -11 6 -20 13 -20 16 0 2 9 0 20 -6 11 -6 20
-13 20 -16z m-350 6 c0 -5 -4 -10 -9 -10 -5 0 -16 -3 -25 -6 -9 -3 -16 -1 -16
4 0 9 16 17 43 21 4 0 7 -3 7 -9z m380 -21 c0 -5 -10 -9 -22 -9 -19 0 -20 -2
-8 -10 9 -6 10 -10 3 -10 -7 0 -17 8 -22 18 -9 16 -6 19 19 20 17 0 30 -4 30
-9z m340 -23 c0 -11 -19 -15 -25 -6 -3 5 1 10 9 10 9 0 16 -2 16 -4z m-390
-21 c10 -12 10 -15 -2 -15 -8 0 -15 7 -15 15 0 8 1 15 2 15 2 0 8 -7 15 -15z
m141 -18 c-8 -8 -11 -7 -11 4 0 20 13 34 18 19 3 -7 -1 -17 -7 -23z m-481 14
c0 -6 -4 -13 -10 -16 -5 -3 -10 1 -10 9 0 9 5 16 10 16 6 0 10 -4 10 -9z m947
-13 c-3 -8 -6 -5 -6 6 -1 11 2 17 5 13 3 -3 4 -12 1 -19z m-117 -8 c0 -5 -4
-10 -10 -10 -5 0 -10 5 -10 10 0 6 5 10 10 10 6 0 10 -4 10 -10z m-120 -19 c0
-6 -4 -12 -8 -15 -5 -3 -9 1 -9 9 0 8 4 15 9 15 4 0 8 -4 8 -9z m60 5 c0 -3
-4 -8 -10 -11 -5 -3 -10 -1 -10 4 0 6 5 11 10 11 6 0 10 -2 10 -4z m-760 -22
c0 -3 -7 -12 -15 -21 -20 -19 -32 -10 -14 11 14 15 29 21 29 10z m350 -9 c0
-8 -7 -15 -15 -15 -8 0 -15 7 -15 15 0 8 7 15 15 15 8 0 15 -7 15 -15z m94 0
c4 -10 -1 -15 -15 -15 -17 0 -18 2 -7 15 16 18 15 18 22 0z m96 -5 c0 -5 -4
-12 -10 -15 -5 -3 -10 2 -10 12 0 14 -2 15 -9 4 -5 -8 -11 -9 -15 -3 -7 12 13
21 32 14 6 -2 12 -8 12 -12z m90 10 c0 -5 -7 -10 -15 -10 -8 0 -15 5 -15 10 0
6 7 10 15 10 8 0 15 -4 15 -10z m240 -21 c0 -6 -4 -7 -10 -4 -5 3 -10 11 -10
16 0 6 5 7 10 4 6 -3 10 -11 10 -16z m-933 -6 c2 -6 -4 -13 -13 -17 -21 -8
-26 -3 -18 18 7 18 25 17 31 -1z m313 8 c0 -6 -9 -9 -19 -8 -11 0 -17 5 -15 9
7 11 34 10 34 -1z m-60 -4 c0 -7 -37 -47 -44 -47 -11 0 -2 24 14 37 14 12 30
17 30 10z m-150 -25 c0 -13 -12 -22 -22 -16 -10 6 -1 24 13 24 5 0 9 -4 9 -8z
m472 -24 c-6 -6 -15 -8 -19 -4 -4 4 -1 11 7 16 19 12 27 3 12 -12z m268 13 c0
-5 -7 -11 -15 -15 -9 -3 -15 0 -15 9 0 8 7 15 15 15 8 0 15 -4 15 -9z m-710
-5 c0 -2 -7 -7 -16 -10 -8 -3 -12 -2 -9 4 6 10 25 14 25 6z m261 -19 c-13 -13
-26 -3 -16 12 3 6 11 8 17 5 6 -4 6 -10 -1 -17z m89 13 c0 -5 -4 -10 -10 -10
-5 0 -10 5 -10 10 0 6 5 10 10 10 6 0 10 -4 10 -10z m179 -19 c-15 -5 -22 6
-14 19 6 9 10 9 16 -1 5 -8 4 -15 -2 -18z m81 19 c0 -5 -4 -10 -10 -10 -5 0
-10 5 -10 10 0 6 5 10 10 10 6 0 10 -4 10 -10z m-683 -16 c3 -8 1 -20 -6 -27
-8 -8 -11 -8 -11 0 0 6 -3 18 -6 27 -3 9 -1 16 5 16 7 0 14 -7 18 -16z m263 6
c0 -13 -11 -13 -30 0 -12 8 -11 10 8 10 12 0 22 -4 22 -10z m641 -17 c-12 -20
-14 -14 -5 12 4 9 9 14 11 11 3 -2 0 -13 -6 -23z m-81 -17 c0 -3 -4 -8 -10
-11 -5 -3 -10 -1 -10 4 0 6 5 11 10 11 6 0 10 -2 10 -4z m51 -53 c-12 -20 -14
-14 -5 12 4 9 9 14 11 11 3 -2 0 -13 -6 -23z m-382 6 c-17 -11 -39 -12 -39 -1
0 4 12 8 27 9 19 1 22 -1 12 -8z m-39 -23 c0 -3 -4 -8 -10 -11 -5 -3 -10 -1
-10 4 0 6 5 11 10 11 6 0 10 -2 10 -4z m-150 -172 c0 -2 -9 -4 -20 -4 -11 0
-20 4 -20 9 0 5 9 7 20 4 11 -3 20 -7 20 -9z m370 -14 c0 -5 -5 -10 -11 -10
-5 0 -7 5 -4 10 3 6 8 10 11 10 2 0 4 -4 4 -10z m-535 -90 c8 -13 -5 -13 -25
0 -13 8 -13 10 2 10 9 0 20 -4 23 -10z m-15 -30 c0 -5 -4 -10 -10 -10 -5 0
-10 5 -10 10 0 6 5 10 10 10 6 0 10 -4 10 -10z m-70 -30 c0 -5 -8 -10 -17 -10
-15 0 -16 2 -3 10 19 12 20 12 20 0z m130 0 c0 -5 -4 -10 -10 -10 -5 0 -10 5
-10 10 0 6 5 10 10 10 6 0 10 -4 10 -10z m149 -7 c3 -2 -1 -9 -9 -16 -10 -10
-11 -9 -5 2 6 11 3 13 -17 8 -18 -5 -25 -2 -25 8 0 11 7 13 26 8 14 -3 28 -8
30 -10z m-334 -11 c-8 -9 -45 -10 -45 -1 0 4 6 9 13 12 15 5 40 -3 32 -11z
m-80 -12 c16 -7 12 -9 -18 -9 -23 -1 -36 3 -32 9 7 12 23 12 50 0z m462 -54
c23 -15 47 -25 52 -21 6 3 11 1 11 -4 0 -6 6 -11 14 -11 8 0 18 -4 21 -10 3
-5 0 -8 -7 -5 -23 8 -38 -10 -40 -48 -1 -20 -4 -36 -7 -35 -3 0 -16 -3 -29 -7
-18 -6 -22 -13 -18 -30 5 -20 1 -23 -28 -27 -19 -2 -33 -1 -30 3 2 4 0 10 -6
14 -5 3 -10 1 -10 -4 0 -7 -29 -11 -77 -11 -59 0 -81 -4 -96 -17 -16 -14 -19
-15 -15 -3 7 23 48 40 100 40 26 0 50 5 53 10 3 6 -3 10 -15 10 -12 0 -30 5
-41 10 -10 6 -35 11 -54 12 -19 1 -35 5 -35 10 0 5 -5 6 -12 2 -7 -4 -8 -3 -4
5 4 6 12 9 17 6 5 -4 9 -1 9 4 0 6 -7 11 -15 11 -20 0 -19 17 3 29 15 9 15 12
2 20 -16 11 -15 13 22 28 20 9 28 9 31 0 3 -9 7 -9 18 -1 8 6 26 10 41 7 22
-3 26 0 22 12 -4 9 -1 15 7 15 11 0 11 3 -1 10 -11 7 -2 9 30 7 29 -2 60 -13
87 -31z m-341 13 c3 -6 1 -16 -6 -22 -10 -9 -11 -9 -6 1 5 8 0 12 -16 12 -18
0 -20 2 -8 10 20 13 27 12 36 -1z m204 7 c0 -11 -19 -15 -25 -6 -3 5 1 10 9
10 9 0 16 -2 16 -4z m180 -6 c0 -5 -4 -10 -9 -10 -6 0 -13 5 -16 10 -3 6 1 10
9 10 9 0 16 -4 16 -10z m-506 -26 c8 -3 12 -12 9 -20 -4 -10 0 -12 13 -7 11 4
15 3 11 -4 -4 -5 5 -15 19 -22 22 -10 31 -8 60 10 19 12 38 19 41 15 4 -3 0
-6 -8 -6 -11 0 -11 -2 1 -10 8 -5 13 -10 10 -11 -3 0 -18 -2 -34 -4 -38 -5
-41 -9 -26 -45 17 -40 1 -80 -32 -81 l-23 0 23 -9 c12 -5 22 -15 22 -22 0 -6
7 -3 15 8 14 18 14 18 8 -3 -4 -18 -10 -22 -29 -17 -16 4 -24 2 -25 -7 0 -8
-2 -24 -5 -36 -2 -13 1 -23 6 -23 6 0 10 -4 10 -10 0 -5 -12 -10 -27 -10 -22
0 -25 2 -13 10 10 6 11 10 3 10 -7 0 -13 7 -13 15 0 11 -11 15 -36 15 -30 0
-35 3 -29 18 3 9 7 22 8 27 3 14 -33 6 -50 -11 -8 -8 -23 -14 -34 -14 -10 0
-19 -7 -19 -15 0 -8 -5 -15 -10 -15 -15 0 -23 27 -15 48 4 9 7 34 6 55 -2 32
3 44 33 73 20 20 58 45 84 57 32 14 41 22 29 25 -9 2 -15 8 -12 13 7 11 9 11
29 3z m-74 -34 c0 -5 -4 -10 -10 -10 -5 0 -10 5 -10 10 0 6 5 10 10 10 6 0 10
-4 10 -10z m-170 -35 c0 -14 -4 -25 -10 -25 -11 0 -14 33 -3 43 11 11 13 8 13
-18z m413 -15 c6 0 2 -7 -9 -15 -17 -13 -17 -14 -1 -15 9 0 17 -5 17 -12 0 -6
-3 -8 -7 -5 -3 4 -13 2 -20 -5 -19 -16 -32 4 -25 38 3 17 9 23 19 20 8 -3 20
-6 26 -6z m607 -12 c0 -19 -2 -20 -10 -8 -13 19 -13 30 0 30 6 0 10 -10 10
-22z m-180 -2 c0 -2 -9 -6 -20 -9 -11 -3 -20 -1 -20 4 0 5 9 9 20 9 11 0 20
-2 20 -4z m95 -25 c6 -1 4 -5 -4 -10 -15 -10 -41 -4 -41 9 0 5 8 7 18 5 9 -2
22 -4 27 -4z m95 -31 c0 -5 -6 -10 -14 -10 -8 0 -18 5 -21 10 -3 6 3 10 14 10
12 0 21 -4 21 -10z m-226 -9 c3 -5 -5 -11 -19 -13 -26 -5 -35 6 -12 15 19 8
25 8 31 -2z m40 3 c9 -3 13 -10 10 -15 -8 -14 -21 -11 -28 6 -6 17 -4 18 18 9z
m126 -9 c7 -9 8 -15 2 -15 -5 0 -12 7 -16 15 -3 8 -4 15 -2 15 2 0 9 -7 16
-15z m-910 -16 c0 -5 -7 -9 -15 -9 -8 0 -15 7 -15 15 0 9 6 12 15 9 8 -4 15
-10 15 -15z m335 1 c3 -5 1 -10 -4 -10 -6 0 -11 5 -11 10 0 6 2 10 4 10 3 0 8
-4 11 -10z m615 -10 c0 -5 -4 -10 -10 -10 -5 0 -10 5 -10 10 0 6 5 10 10 10 6
0 10 -4 10 -10z m-150 -34 c0 -9 -30 -14 -35 -6 -4 6 3 10 14 10 12 0 21 -2
21 -4z m-204 -13 c-10 -10 -46 -11 -46 -1 0 4 12 8 27 8 14 0 23 -3 19 -7z
m260 -11 c-10 -2 -22 0 -28 6 -6 6 0 7 19 4 21 -5 23 -7 9 -10z m-201 -2 c3
-5 -3 -10 -15 -10 -12 0 -18 5 -15 10 3 6 10 10 15 10 5 0 12 -4 15 -10z
m-328 -6 c-3 -3 -12 -4 -19 -1 -8 3 -5 6 6 6 11 1 17 -2 13 -5z m163 2 c0 -2
-11 -6 -25 -8 -14 -3 -25 -1 -25 3 0 5 11 9 25 9 14 0 25 -2 25 -4z m-412 -44
c-10 -2 -18 -12 -18 -22 0 -13 -5 -17 -15 -14 -8 4 -15 11 -15 16 0 17 33 36
50 30 13 -5 12 -7 -2 -10z m112 -3 c0 -5 -7 -9 -15 -9 -18 0 -20 -17 -2 -23 6
-2 0 -4 -14 -3 -30 1 -32 19 -4 40 20 14 35 12 35 -5z m595 11 c-3 -5 -11 -10
-16 -10 -6 0 -7 5 -4 10 3 6 11 10 16 10 6 0 7 -4 4 -10z m-295 -10 c0 -5 -4
-10 -10 -10 -5 0 -10 5 -10 10 0 6 5 10 10 10 6 0 10 -4 10 -10z m-47 -17 c-7
-2 -21 -2 -30 0 -10 3 -4 5 12 5 17 0 24 -2 18 -5z m-76 -17 c0 -7 -11 -13
-24 -13 -23 0 -29 7 -16 20 12 12 40 7 40 -7z m369 -1 c-10 -8 -23 -12 -28 -9
-14 9 2 24 25 24 21 -1 21 -1 3 -15z m-794 -19 c8 5 9 1 5 -10 -4 -9 -3 -14 2
-11 5 3 12 1 16 -4 3 -5 -2 -14 -12 -19 -15 -9 -15 -12 -3 -28 13 -15 13 -17
0 -12 -8 2 -18 18 -21 34 -4 16 -10 40 -14 54 -5 21 -5 22 5 7 6 -9 16 -14 22
-11z m159 5 c6 10 9 6 9 -13 0 -20 -4 -26 -15 -22 -8 4 -15 16 -14 28 0 12 3
16 6 7 5 -11 7 -11 14 0z m204 -1 c-3 -5 -10 -10 -16 -10 -5 0 -9 5 -9 10 0 6
7 10 16 10 8 0 12 -4 9 -10z m75 -20 c-14 -11 -29 -20 -35 -20 -5 0 4 9 20 20
38 25 48 25 15 0z m-367 -22 c7 -25 3 -33 -12 -23 -13 8 -15 45 -2 45 5 0 11
-10 14 -22z m57 -3 c0 -15 -26 -32 -36 -23 -2 3 -2 13 2 22 8 20 34 21 34 1z
m247 -1 c-3 -3 -12 -4 -19 -1 -8 3 -5 6 6 6 11 1 17 -2 13 -5z m-72 -38 c0
-17 -4 -22 -15 -18 -22 8 -31 25 -17 34 21 14 32 8 32 -16z m-54 -28 c-9 -24
-31 -37 -31 -17 0 6 8 18 18 25 23 18 23 18 13 -8z m-141 -9 c0 -5 -4 -9 -10
-9 -5 0 -10 7 -10 16 0 8 5 12 10 9 6 -3 10 -10 10 -16z m70 12 c0 -10 -30
-24 -37 -17 -3 3 -2 9 2 15 8 13 35 15 35 2z m-115 -11 c-3 -5 -11 -10 -16
-10 -6 0 -7 5 -4 10 3 6 11 10 16 10 6 0 7 -4 4 -10z m659 -45 c-22 -33 -44
-44 -69 -34 -18 7 -18 8 -2 8 10 1 16 5 13 10 -5 8 48 40 67 41 4 0 0 -11 -9
-25z m-32 -107 c-7 -7 -12 -8 -12 -2 0 14 12 26 19 19 2 -3 -1 -11 -7 -17z
m451 -112 c4 -10 1 -13 -9 -9 -7 3 -14 9 -14 14 0 14 17 10 23 -5z m-63 -16
c-20 -13 -33 -13 -25 0 3 6 14 10 23 10 15 0 15 -2 2 -10z m-55 -30 c-3 -5
-15 -10 -26 -10 -11 0 -17 5 -14 10 3 6 15 10 26 10 11 0 17 -4 14 -10z m105
6 c0 -3 -4 -8 -10 -11 -5 -3 -10 -1 -10 4 0 6 5 11 10 11 6 0 10 -2 10 -4z
m-436 -20 c-3 -8 -13 -17 -22 -21 -13 -5 -13 -2 3 15 21 24 26 25 19 6z m453
-11 c0 -8 -4 -12 -9 -9 -4 3 -8 9 -8 15 0 5 4 9 8 9 5 0 9 -7 9 -15z m73 11
c0 -11 -19 -15 -25 -6 -3 5 1 10 9 10 9 0 16 -2 16 -4z m-140 -35 c0 -5 8 -12
18 -14 9 -3 4 -4 -12 -3 -31 3 -50 26 -22 26 9 0 16 -4 16 -9z m-47 -28 c-5
-12 -3 -14 7 -8 10 6 12 4 7 -7 -3 -10 3 -19 19 -27 31 -14 30 -50 -2 -62 -6
-2 -7 -14 -3 -29 4 -16 7 -19 8 -7 1 24 41 23 41 -2 0 -29 -37 -69 -83 -90
l-42 -20 -3 22 c-4 30 -72 54 -72 26 0 -21 22 -38 28 -21 2 7 11 12 20 11 11
0 12 -2 4 -6 -6 -2 -10 -9 -6 -14 9 -15 -35 -10 -61 7 -14 9 -25 25 -25 35 0
10 -5 21 -10 24 -7 4 2 25 22 53 l33 47 -22 22 c-13 12 -23 28 -23 35 1 8 7 5
16 -7 19 -25 51 -31 112 -19 24 5 32 11 28 21 -4 8 -4 19 0 24 9 15 14 10 7
-8z m219 3 c7 4 8 3 4 -4 -11 -18 -56 -15 -56 3 0 13 4 14 20 5 11 -6 26 -8
32 -4z m-252 -10 c0 -7 -11 -16 -25 -18 -42 -9 -22 20 23 31 1 1 2 -5 2 -13z
m145 -14 c-9 -2 -13 -8 -10 -13 4 -5 2 -9 -3 -9 -6 0 -13 7 -16 16 -3 8 -2 12
4 9 6 -3 13 1 16 10 6 13 8 14 15 3 6 -8 3 -14 -6 -16z m-595 -32 c0 -5 -8
-10 -17 -11 -16 0 -16 -1 1 -8 16 -6 17 -9 6 -16 -9 -5 -15 -4 -18 3 -2 7 -9
10 -15 6 -7 -3 -1 4 12 15 26 24 31 25 31 11z m290 -70 c0 -5 -4 -10 -9 -10
-6 0 -13 5 -16 10 -3 6 1 10 9 10 9 0 16 -4 16 -10z m-163 -16 c-3 -3 -12 -4
-19 -1 -8 3 -5 6 6 6 11 1 17 -2 13 -5z m72 -74 c18 -22 36 -38 42 -35 5 4 9
2 9 -4 0 -6 11 -16 25 -23 22 -12 23 -15 12 -38 -10 -20 -19 -24 -43 -22 -16
2 -33 7 -38 12 -4 4 -25 -11 -47 -33 -44 -49 -101 -82 -123 -74 -23 9 -20 27
4 27 11 0 20 7 20 16 0 14 -2 14 -22 0 -17 -12 -25 -13 -37 -3 -14 11 -14 10
-2 -6 13 -17 13 -17 -10 -7 -21 10 -24 17 -21 51 4 35 2 38 -14 33 -29 -11 -4
10 31 25 l30 13 -19 -21 c-11 -12 -16 -24 -13 -28 4 -3 7 -1 7 5 0 6 6 9 14 6
9 -3 17 6 24 26 11 29 10 31 -8 25 -50 -16 13 58 68 80 54 23 77 17 111 -25z
m861 -89 c0 -12 -20 -25 -27 -18 -7 7 6 27 18 27 5 0 9 -4 9 -9z m120 -1 c0
-5 -4 -10 -10 -10 -5 0 -10 5 -10 10 0 6 5 10 10 10 6 0 10 -4 10 -10z m-706
-15 c3 -8 -1 -18 -9 -22 -7 -5 -14 -12 -14 -18 -3 -27 -14 -43 -36 -53 -15 -7
-26 -8 -30 -2 -4 6 0 10 7 10 10 0 10 2 -1 9 -16 10 -3 20 21 16 18 -3 32 20
22 36 -9 15 3 39 20 39 7 0 16 -7 20 -15z m731 -15 c3 -5 -1 -10 -10 -10 -9 0
-13 5 -10 10 3 6 8 10 10 10 2 0 7 -4 10 -10z m105 0 c0 -5 -7 -10 -16 -10 -8
0 -12 5 -9 10 3 6 10 10 16 10 5 0 9 -4 9 -10z m-213 -16 c-3 -3 -12 -4 -19
-1 -8 3 -5 6 6 6 11 1 17 -2 13 -5z m-753 -19 c-4 -8 -14 -15 -23 -15 -14 1
-13 3 3 15 25 19 27 19 20 0z m996 11 c0 -2 -9 -6 -20 -9 -11 -3 -18 -1 -14 4
5 9 34 13 34 5z m-340 -10 c0 -11 -19 -15 -25 -6 -3 5 1 10 9 10 9 0 16 -2 16
-4z m190 -6 c0 -5 -4 -10 -10 -10 -5 0 -10 5 -10 10 0 6 5 10 10 10 6 0 10 -4
10 -10z m774 -20 c30 -22 34 -29 17 -27 -11 1 -23 7 -25 14 -3 7 -13 13 -21
13 -9 0 -13 -4 -10 -10 3 -5 -1 -10 -10 -10 -11 0 -15 5 -11 15 6 17 -7 19
-35 5 -24 -14 -26 5 -1 19 29 17 55 12 96 -19z m-2098 -7 c-10 -10 -19 5 -10
18 6 11 8 11 12 0 2 -7 1 -15 -2 -18z m340 12 c-10 -8 -23 -12 -28 -9 -14 9 2
24 25 24 21 -1 21 -1 3 -15z m303 -29 c-6 -21 -13 -35 -16 -33 -3 3 -16 2 -29
-3 -16 -6 -24 -6 -24 1 0 12 69 83 75 77 3 -2 0 -21 -6 -42z m601 35 c10 -1
11 -4 3 -12 -6 -6 -21 -9 -34 -7 -30 4 -37 26 -7 23 13 -1 30 -3 38 -4z m333
-6 c1 -5 -6 -11 -15 -13 -11 -2 -18 3 -18 13 0 17 30 18 33 0z m-48 -25 c1
-11 -4 -20 -10 -20 -9 0 -12 20 -6 49 2 11 15 -12 16 -29z m-188 14 c-3 -3
-12 -4 -19 -1 -8 3 -5 6 6 6 11 1 17 -2 13 -5z m113 -4 c0 -5 -4 -10 -9 -10
-6 0 -13 5 -16 10 -3 6 1 10 9 10 9 0 16 -4 16 -10z m764 -11 c-3 -5 -10 -7
-15 -3 -5 3 -7 10 -3 15 3 5 10 7 15 3 5 -3 7 -10 3 -15z m81 11 c3 -5 2 -10
-4 -10 -5 0 -13 5 -16 10 -3 6 -2 10 4 10 5 0 13 -4 16 -10z m-625 -49 c3 -2
-3 -1 -12 2 -10 4 -18 2 -18 -4 0 -18 -45 -5 -48 15 -6 31 20 38 48 13 14 -12
27 -24 30 -26z m345 39 c3 -5 1 -10 -4 -10 -6 0 -11 5 -11 10 0 6 2 10 4 10 3
0 8 -4 11 -10z m-845 -25 c0 -6 -12 -17 -26 -23 -19 -9 -24 -9 -18 0 5 8 2 9
-9 5 -11 -4 -14 -2 -10 8 3 8 9 12 14 9 5 -3 9 1 9 9 0 10 7 13 20 10 11 -3
20 -11 20 -18z m1010 -3 c-5 -2 -7 -9 -4 -17 6 -15 -30 -30 -46 -20 -17 11
-11 23 15 29 18 5 23 11 18 23 -6 15 -5 16 9 3 9 -8 12 -16 8 -18z m-2110 8
c0 -5 -2 -10 -4 -10 -3 0 -8 5 -11 10 -3 6 -1 10 4 10 6 0 11 -4 11 -10z m230
-5 c0 -8 -9 -15 -20 -15 -13 0 -18 5 -14 15 4 8 12 15 20 15 8 0 14 -7 14 -15z
m105 5 c-3 -5 -11 -10 -16 -10 -6 0 -7 5 -4 10 3 6 11 10 16 10 6 0 7 -4 4
-10z m845 -7 c0 -2 -6 -11 -14 -19 -16 -16 -40 -19 -31 -4 3 6 0 10 -7 10 -8
1 -6 6 5 15 17 12 47 11 47 -2z m100 13 c0 -3 -4 -8 -10 -11 -5 -3 -10 -1 -10
4 0 6 5 11 10 11 6 0 10 -2 10 -4z m85 -6 c-3 -5 1 -10 10 -10 9 0 14 -4 11
-8 -9 -15 23 -52 39 -46 8 4 15 1 15 -5 0 -6 -6 -11 -14 -11 -21 0 -29 -30 -8
-31 14 0 14 -2 -3 -9 -17 -7 -17 -9 -2 -9 9 -1 17 -5 17 -10 0 -5 -8 -8 -17
-7 -12 0 -19 -7 -21 -21 -4 -25 -22 -32 -22 -9 0 8 5 27 10 42 9 23 8 25 -4
15 -14 -12 -28 -83 -14 -75 17 10 7 -17 -13 -37 -15 -15 -28 -19 -48 -14 -21
4 -30 2 -34 -9 -4 -9 -11 -16 -17 -16 -6 0 -8 4 -5 10 3 5 -1 23 -10 39 -22
44 -20 81 5 81 22 0 29 35 8 42 -10 4 -10 10 0 33 12 26 14 26 31 11 21 -19
34 -9 45 37 4 18 13 27 27 27 11 0 17 -4 14 -10z m836 0 c5 0 9 -4 9 -8 0 -4
-16 -8 -35 -8 -27 0 -32 3 -23 13 6 8 18 11 25 8 8 -3 19 -5 24 -5z m-2231
-20 c0 -11 -4 -20 -10 -20 -5 0 -10 9 -10 20 0 11 5 20 10 20 6 0 10 -9 10
-20z m1920 5 c-14 -17 -30 -20 -30 -6 0 5 8 12 18 14 9 3 19 5 21 6 2 0 -2 -6
-9 -14z m-1780 1 c0 -11 -19 -15 -25 -6 -3 5 1 10 9 10 9 0 16 -2 16 -4z m300
-6 c0 -5 -4 -10 -10 -10 -5 0 -10 5 -10 10 0 6 5 10 10 10 6 0 10 -4 10 -10z
m1047 4 c-3 -3 -12 -4 -19 -1 -8 3 -5 6 6 6 11 1 17 -2 13 -5z m583 -26 c0 -4
-8 -8 -17 -8 -15 0 -15 -2 -4 -9 8 -5 20 -7 28 -4 7 3 13 0 13 -6 0 -17 -31
-13 -52 6 -10 9 -18 24 -18 34 0 16 3 17 25 7 14 -6 25 -15 25 -20z m-1745 13
c7 -12 -12 -24 -25 -16 -11 7 -4 25 10 25 5 0 11 -4 15 -9z m251 -21 c0 -10
-2 -17 -5 -15 -2 3 -10 0 -18 -6 -19 -16 -17 6 3 25 19 20 20 20 20 -4z m909
10 c3 -5 -3 -10 -14 -10 -11 0 -23 5 -26 10 -3 6 3 10 14 10 11 0 23 -4 26
-10z m75 3 c0 -5 -7 -17 -15 -27 -12 -16 -18 -17 -27 -8 -9 9 -8 12 5 12 9 0
17 7 17 15 0 8 5 15 10 15 6 0 10 -3 10 -7z m85 -23 c7 0 16 -7 19 -16 5 -12
2 -15 -10 -10 -8 3 -19 6 -24 6 -10 0 -20 37 -11 45 3 4 7 0 9 -9 2 -9 9 -16
17 -16z m245 14 c0 -3 -7 -12 -15 -20 -13 -14 -15 -13 -15 5 0 12 6 21 15 21
8 0 15 -3 15 -6z m-1920 -14 c0 -5 -4 -10 -10 -10 -5 0 -10 5 -10 10 0 6 5 10
10 10 6 0 10 -4 10 -10z m130 0 c0 -5 -4 -10 -10 -10 -5 0 -10 5 -10 10 0 6 5
10 10 10 6 0 10 -4 10 -10z m2070 0 c0 -5 -7 -10 -16 -10 -8 0 -12 5 -9 10 3
6 10 10 16 10 5 0 9 -4 9 -10z m80 0 c0 -5 6 -7 13 -4 24 9 80 -38 83 -71 2
-16 6 -41 9 -53 3 -13 3 -50 -1 -83 l-7 -58 -52 4 c-49 5 -53 3 -84 -30 -34
-38 -49 -43 -57 -21 -3 8 -13 12 -23 9 -13 -3 -26 6 -42 28 -30 43 -35 166 -6
175 9 3 17 14 17 24 0 19 17 36 26 27 3 -3 1 -14 -5 -25 -9 -17 -7 -19 27 -18
20 1 38 -3 40 -9 7 -21 35 -28 44 -11 6 10 22 16 43 16 37 0 41 5 25 30 -9 13
-11 13 -21 0 -9 -13 -10 -12 -5 3 3 9 1 17 -4 17 -6 0 -10 7 -10 15 0 8 -4 15
-8 15 -5 0 -17 7 -28 15 -19 14 -18 14 4 15 12 0 22 -4 22 -10z m-2170 -25 c0
-12 -29 -3 -34 10 -4 13 -2 14 14 5 11 -6 20 -13 20 -15z m120 5 c0 -5 -4 -10
-10 -10 -5 0 -10 5 -10 10 0 6 5 10 10 10 6 0 10 -4 10 -10z m1007 4 c-3 -3
-12 -4 -19 -1 -8 3 -5 6 6 6 11 1 17 -2 13 -5z m713 -14 c0 -4 -6 -10 -14 -13
-10 -4 -14 0 -13 12 1 18 27 18 27 1z m-1980 6 c0 -3 -4 -8 -10 -11 -5 -3 -10
-1 -10 4 0 6 5 11 10 11 6 0 10 -2 10 -4z m1176 -11 c-11 -8 -27 -15 -35 -15
-9 1 -2 7 14 15 39 18 44 18 21 0z m58 -1 c3 -8 2 -12 -4 -9 -6 3 -10 10 -10
16 0 14 7 11 14 -7z m636 6 c-20 -13 -33 -13 -25 0 3 6 14 10 23 10 15 0 15
-2 2 -10z m-1530 -10 c0 -5 -9 -10 -21 -10 -11 0 -17 5 -14 10 3 6 13 10 21
10 8 0 14 -4 14 -10z m1595 0 c3 -5 1 -10 -4 -10 -6 0 -11 5 -11 10 0 6 2 10
4 10 3 0 8 -4 11 -10z m155 0 c0 -5 -5 -10 -11 -10 -5 0 -7 5 -4 10 3 6 8 10
11 10 2 0 4 -4 4 -10z m-340 -10 c0 -5 -2 -10 -4 -10 -3 0 -8 5 -11 10 -3 6
-1 10 4 10 6 0 11 -4 11 -10z m164 -22 c-3 -4 -11 -5 -20 -1 -11 4 -12 8 -3
20 10 11 14 11 20 1 4 -6 6 -15 3 -20z m-1834 6 c0 -2 -7 -4 -15 -4 -8 0 -15
4 -15 10 0 5 7 7 15 4 8 -4 15 -8 15 -10z m1940 -5 c0 -5 -11 -9 -25 -9 -14 0
-25 4 -25 9 0 5 11 9 25 9 14 0 25 -4 25 -9z m-1765 -9 c3 -5 1 -10 -4 -10 -6
0 -11 5 -11 10 0 6 2 10 4 10 3 0 8 -4 11 -10z m39 -14 c-3 -9 -10 -16 -15
-16 -6 0 -5 9 1 21 13 24 24 20 14 -5z m794 -1 c-3 -3 -9 2 -12 12 -6 14 -5
15 5 6 7 -7 10 -15 7 -18z m135 -88 c-1 -81 -18 -128 -54 -153 -16 -10 -29
-25 -29 -31 0 -20 -19 -15 -48 13 -22 22 -24 25 -7 20 19 -6 19 -5 2 8 -13 10
-15 19 -8 37 8 19 10 20 10 6 1 -10 6 -15 11 -12 17 11 11 25 -16 35 -14 6
-22 14 -19 20 3 5 1 10 -6 10 -7 0 -5 8 7 21 10 12 18 24 17 28 -5 18 33 72
58 83 16 7 29 17 29 23 0 5 12 -2 27 -17 23 -24 26 -34 26 -91z m55 95 c2 -7
-6 -12 -17 -12 -21 0 -27 11 -14 24 9 9 26 2 31 -12z m560 4 c-7 -8 -15 -12
-17 -11 -5 6 10 25 20 25 5 0 4 -6 -3 -14z m-1663 -6 c-3 -5 -13 -10 -21 -10
-8 0 -12 5 -9 10 3 6 13 10 21 10 8 0 12 -4 9 -10z m1955 0 c0 -5 -9 -10 -20
-10 -11 0 -20 5 -20 10 0 6 9 10 20 10 11 0 20 -4 20 -10z m-2080 -10 c0 -5
-4 -10 -10 -10 -5 0 -10 5 -10 10 0 6 5 10 10 10 6 0 10 -4 10 -10z m1007 4
c-3 -3 -12 -4 -19 -1 -8 3 -5 6 6 6 11 1 17 -2 13 -5z m808 -4 c-3 -5 -11 -10
-16 -10 -6 0 -7 5 -4 10 3 6 11 10 16 10 6 0 7 -4 4 -10z m85 1 c0 -12 -20
-25 -27 -18 -7 7 6 27 18 27 5 0 9 -4 9 -9z m-1690 -22 c0 -5 -7 -9 -15 -9 -8
0 -15 7 -15 15 0 9 6 12 15 9 8 -4 15 -10 15 -15z m-120 1 c0 -5 -5 -10 -11
-10 -5 0 -7 5 -4 10 3 6 8 10 11 10 2 0 4 -4 4 -10z m943 -11 c-6 -6 -9 -17
-7 -24 3 -7 -2 -15 -10 -18 -9 -4 -16 -4 -16 -1 0 12 34 63 39 59 2 -3 0 -10
-6 -16z m813 5 c-3 -9 -6 -18 -6 -20 0 -2 -4 -4 -9 -4 -5 0 -7 9 -4 20 3 11
10 20 15 20 6 0 7 -7 4 -16z m164 -24 c-20 -13 -40 -12 -40 1 0 5 4 8 9 5 5
-3 12 2 15 11 5 13 9 14 19 4 9 -9 9 -14 -3 -21z m-1603 -2 c-3 -8 -6 -5 -6 6
-1 11 2 17 5 13 3 -3 4 -12 1 -19z m-417 -10 c0 -16 -3 -19 -11 -11 -6 6 -8
16 -5 22 11 17 16 13 16 -11z m1230 2 c0 -5 -7 -10 -15 -10 -8 0 -15 5 -15 10
0 6 7 10 15 10 8 0 15 -4 15 -10z m740 6 c0 -11 -19 -15 -25 -6 -3 5 1 10 9
10 9 0 16 -2 16 -4z m-41 -20 c9 -10 8 -15 -4 -20 -10 -4 -15 1 -15 14 0 24 4
25 19 6z m-1842 -2 c-3 -3 -12 -4 -19 -1 -8 3 -5 6 6 6 11 1 17 -2 13 -5z
m1978 -14 c3 -5 1 -10 -4 -10 -6 0 -11 5 -11 10 0 6 2 10 4 10 3 0 8 -4 11
-10z m-65 -20 c-8 -5 -6 -17 10 -45 14 -24 19 -47 15 -64 -3 -14 -6 -43 -7
-63 -1 -26 -6 -38 -20 -41 -10 -3 -18 -12 -18 -20 0 -8 -10 -17 -22 -21 -19
-5 -21 -8 -8 -16 17 -11 10 -13 -14 -4 -9 3 -16 15 -16 25 0 10 -4 19 -10 19
-5 0 -19 19 -31 41 -16 32 -19 50 -13 78 4 20 8 42 9 48 0 7 13 27 28 44 23
26 32 30 57 25 18 -3 30 -1 30 5 0 6 5 7 11 3 8 -5 8 -9 -1 -14z m-1927 -11
c-4 -12 0 -25 8 -30 8 -5 10 -9 4 -9 -18 0 -30 14 -32 38 -2 13 3 22 11 22 9
0 12 -7 9 -21z m667 11 c0 -5 -7 -7 -15 -4 -8 4 -15 8 -15 10 0 2 7 4 15 4 8
0 15 -4 15 -10z m510 -10 c0 -5 -9 -10 -21 -10 -11 0 -17 5 -14 10 3 6 13 10
21 10 8 0 14 -4 14 -10z m555 -6 c-9 -9 -19 -13 -23 -10 -3 4 0 11 8 16 24 15
33 11 15 -6z m-1765 -25 c0 -6 -4 -7 -10 -4 -5 3 -10 11 -10 16 0 6 5 7 10 4
6 -3 10 -11 10 -16z m1770 -9 c0 -5 -7 -10 -16 -10 -8 0 -12 5 -9 10 3 6 10
10 16 10 5 0 9 -4 9 -10z m39 -48 c-2 -24 -2 -24 -6 -4 -2 12 -9 22 -14 22 -6
0 -7 5 -4 10 11 17 25 0 24 -28z m-609 -2 c-9 -6 -17 -5 -22 3 -9 15 14 29 27
16 6 -6 5 -13 -5 -19z m840 -30 c0 -5 -5 -10 -11 -10 -5 0 -7 5 -4 10 3 6 8
10 11 10 2 0 4 -4 4 -10z m-910 -30 c0 -5 -5 -10 -11 -10 -5 0 -7 5 -4 10 3 6
8 10 11 10 2 0 4 -4 4 -10z m1170 -40 c0 -11 -59 2 -70 15 -8 10 -2 10 30 2
22 -6 40 -14 40 -17z m-526 4 c4 -10 1 -14 -6 -12 -15 5 -23 28 -10 28 5 0 13
-7 16 -16z m462 -3 c5 -5 20 -11 34 -13 33 -4 39 -45 10 -77 -11 -13 -20 -18
-20 -11 0 10 -3 10 -14 1 -11 -9 -15 -9 -19 1 -4 8 -6 7 -6 -4 -1 -10 -6 -18
-12 -18 -6 0 -8 8 -6 18 15 54 17 73 7 67 -5 -3 -10 -2 -10 4 0 5 -3 16 -6 25
-7 18 25 23 42 7z m-1236 -5 c0 -2 -7 -6 -15 -10 -8 -3 -15 -1 -15 4 0 6 7 10
15 10 8 0 15 -2 15 -4z m178 -37 c3 -11 1 -11 -6 -1 -5 7 -17 10 -28 6 -16 -5
-16 -4 -4 5 18 13 32 10 38 -10z m852 11 c-20 -13 -33 -13 -25 0 3 6 14 10 23
10 15 0 15 -2 2 -10z m-192 -18 c6 -18 -15 -14 -22 4 -4 10 -1 14 6 12 6 -2
14 -10 16 -16z m262 -3 c0 -6 -4 -7 -10 -4 -5 3 -10 11 -10 16 0 6 5 7 10 4 6
-3 10 -11 10 -16z m-330 -19 c0 -5 -2 -10 -4 -10 -3 0 -8 5 -11 10 -3 6 -1 10
4 10 6 0 11 -4 11 -10z m-750 -20 c0 -5 -4 -10 -9 -10 -6 0 -13 5 -16 10 -3 6
1 10 9 10 9 0 16 -4 16 -10z m110 6 c0 -2 -8 -10 -17 -17 -16 -13 -17 -12 -4
4 13 16 21 21 21 13z m740 -21 c0 -2 -7 -5 -15 -9 -9 -3 -15 0 -15 9 0 9 6 12
15 9 8 -4 15 -7 15 -9z m290 5 c0 -5 -6 -10 -14 -10 -8 0 -18 5 -21 10 -3 6 3
10 14 10 12 0 21 -4 21 -10z m-350 -31 c0 -5 -6 -9 -14 -9 -8 0 -14 9 -13 19
1 15 4 17 14 9 7 -6 13 -14 13 -19z m-45 11 c3 -5 1 -10 -4 -10 -6 0 -11 5
-11 10 0 6 2 10 4 10 3 0 8 -4 11 -10z m169 -34 c-6 -15 -24 -23 -24 -11 0 8
24 34 28 30 1 -1 0 -10 -4 -19z m46 14 c0 -5 -4 -10 -10 -10 -5 0 -10 5 -10
10 0 6 5 10 10 10 6 0 10 -4 10 -10z m-840 -10 c0 -5 -4 -10 -10 -10 -5 0 -10
5 -10 10 0 6 5 10 10 10 6 0 10 -4 10 -10z m940 -20 c0 -5 -2 -10 -4 -10 -3 0
-8 5 -11 10 -3 6 -1 10 4 10 6 0 11 -4 11 -10z m187 -17 c-15 -16 -17 -16 -17
-1 0 9 6 18 13 21 20 7 22 -2 4 -20z m-355 -44 c11 -6 17 -13 15 -16 -3 -2
-15 0 -26 7 -14 7 -21 20 -20 38 2 23 2 24 6 4 2 -12 13 -27 25 -33z m-118 26
c19 -14 14 -35 -8 -35 -8 0 -16 11 -18 25 -6 28 -1 30 26 10z m51 4 c11 -17
-1 -21 -15 -4 -8 9 -8 15 -2 15 6 0 14 -5 17 -11z m185 1 c0 -5 -5 -10 -11
-10 -5 0 -7 5 -4 10 3 6 8 10 11 10 2 0 4 -4 4 -10z m90 0 c0 -5 -2 -10 -4
-10 -3 0 -8 5 -11 10 -3 6 -1 10 4 10 6 0 11 -4 11 -10z m-1005 -10 c-3 -5
-13 -10 -21 -10 -8 0 -14 5 -14 10 0 6 9 10 21 10 11 0 17 -4 14 -10z m1092
-18 c-10 -2 -14 -8 -10 -15 4 -7 -1 -6 -11 2 -20 17 -3 33 23 23 14 -6 14 -7
-2 -10z m-387 -33 c0 -5 -9 -9 -20 -9 -22 0 -27 16 -7 23 15 5 27 -1 27 -14z
m-750 -4 c10 -12 10 -15 -3 -15 -8 0 -17 7 -21 15 -3 8 -2 15 3 15 5 0 14 -7
21 -15z m774 -10 c-6 -16 -24 -21 -24 -7 0 11 11 22 21 22 5 0 6 -7 3 -15z
m276 1 c0 -3 -4 -8 -10 -11 -5 -3 -10 -1 -10 4 0 6 5 11 10 11 6 0 10 -2 10
-4z m-10 -50 c0 -3 -4 -8 -10 -11 -5 -3 -10 -1 -10 4 0 6 5 11 10 11 6 0 10
-2 10 -4z m-499 -94 c-7 -2 -18 1 -23 6 -8 8 -4 9 13 5 13 -4 18 -8 10 -11z"/>
<path d="M1077 4051 c-4 -17 -3 -21 5 -13 5 5 8 16 6 23 -3 8 -7 3 -11 -10z"/>
<path d="M1252 4235 c-20 -11 -21 -13 -6 -19 16 -6 33 8 34 27 0 8 1 9 -28 -8z"/>
<path d="M1411 4170 c15 -46 26 -57 41 -42 8 8 3 19 -21 44 l-31 32 11 -34z
m39 -30 c0 -5 -4 -10 -10 -10 -5 0 -10 5 -10 10 0 6 5 10 10 10 6 0 10 -4 10
-10z"/>
<path d="M1480 3869 c0 -5 5 -7 10 -4 6 3 10 8 10 11 0 2 -4 4 -10 4 -5 0 -10
-5 -10 -11z"/>
<path d="M1070 3345 c0 -10 3 -15 7 -12 3 4 12 2 19 -4 13 -10 32 6 20 18 -3
4 -6 0 -6 -7 0 -9 -6 -8 -20 5 -19 17 -20 17 -20 0z"/>
<path d="M1125 3320 c-3 -5 -1 -10 4 -10 6 0 11 5 11 10 0 6 -2 10 -4 10 -3 0
-8 -4 -11 -10z"/>
<path d="M820 2509 c-25 -7 -25 -7 -2 -8 13 -1 32 -6 43 -11 13 -7 19 -7 19 0
0 5 -6 10 -14 10 -8 0 -16 4 -18 8 -1 5 -14 5 -28 1z"/>
<path d="M1135 1561 c-3 -5 0 -13 6 -17 7 -4 9 -3 5 4 -3 5 0 13 6 15 9 4 10
6 1 6 -6 1 -14 -3 -18 -8z"/>
<path d="M1247 1473 c-4 -3 -7 -13 -7 -22 1 -13 3 -13 11 2 11 19 8 33 -4 20z"/>
<path d="M2840 995 c7 -9 15 -13 17 -11 7 7 -7 26 -19 26 -6 0 -6 -6 2 -15z"/>
<path d="M2747 943 c-3 -5 1 -14 9 -21 12 -10 14 -10 14 2 0 17 -16 30 -23 19z"/>
<path d="M2816 855 c4 -8 8 -15 10 -15 2 0 4 7 4 15 0 8 -4 15 -10 15 -5 0 -7
-7 -4 -15z"/>
<path d="M1785 910 c2 -4 -7 -17 -20 -30 -13 -13 -23 -30 -22 -39 4 -24 22
-19 22 6 0 12 10 31 23 43 26 25 27 27 7 27 -8 0 -12 -3 -10 -7z"/>
<path d="M2636 861 c-4 -7 -5 -15 -2 -18 9 -9 19 4 14 18 -4 11 -6 11 -12 0z"/>
<path d="M2607 781 c-2 -10 -1 -25 4 -32 6 -10 9 -4 9 19 0 36 -5 42 -13 13z"/>
<path d="M1348 4425 c18 -15 30 -30 27 -35 -3 -4 10 -11 28 -14 19 -3 52 -22
75 -41 22 -20 57 -42 76 -50 l36 -15 30 41 c16 23 30 49 30 58 -1 12 -6 9 -19
-9 -53 -70 -55 -71 -89 -52 -17 9 -61 38 -97 64 -36 27 -80 55 -98 64 l-32 15
33 -26z"/>
<path d="M3195 4141 c-3 -5 -1 -12 4 -15 5 -3 11 1 15 9 6 16 -9 21 -19 6z"/>
<path d="M1878 4103 c6 -2 18 -2 25 0 6 3 1 5 -13 5 -14 0 -19 -2 -12 -5z"/>
<path d="M1925 4090 c4 -6 11 -8 16 -5 14 9 11 15 -7 15 -8 0 -12 -5 -9 -10z"/>
<path d="M725 4010 c-3 -5 -1 -10 4 -10 6 0 11 5 11 10 0 6 -2 10 -4 10 -3 0
-8 -4 -11 -10z"/>
<path d="M757 3998 c-8 -31 -1 -54 19 -62 17 -6 17 7 0 54 l-13 35 -6 -27z"/>
<path d="M3680 3854 c0 -3 5 -14 10 -24 13 -25 -5 -36 -26 -16 -18 18 -17 18
-40 9 -13 -5 -4 -12 36 -30 28 -12 57 -20 64 -16 6 3 8 3 4 -2 -10 -10 42 -37
59 -31 7 3 15 1 18 -4 4 -6 15 -10 26 -10 11 0 31 -12 45 -27 13 -14 27 -23
30 -20 11 11 14 67 4 67 -5 0 -7 7 -4 15 5 11 -1 15 -17 15 -16 0 -20 -3 -11
-8 7 -5 10 -16 6 -25 -3 -10 -1 -17 5 -17 6 0 11 -4 11 -10 0 -5 -8 -10 -17
-10 -9 0 -13 3 -10 6 3 4 2 15 -4 26 -7 13 -17 17 -32 14 -12 -3 -16 -3 -10 0
15 7 -1 25 -53 60 -24 17 -34 19 -34 10 0 -9 -7 -12 -20 -9 -11 3 -20 14 -20
24 0 11 -4 19 -10 19 -5 0 -10 -3 -10 -6z m100 -64 c8 -5 11 -12 7 -16 -4 -4
-15 0 -24 9 -18 18 -8 23 17 7z"/>
<path d="M3239 3794 c-10 -13 -10 -17 2 -25 8 -5 19 -9 25 -9 16 0 55 -45 47
-55 -5 -4 2 -2 15 4 21 11 30 31 14 31 -5 0 -27 16 -49 35 -36 31 -42 33 -54
19z"/>
<path d="M3207 3709 c-6 -22 6 -25 22 -5 9 10 8 15 -3 19 -8 3 -16 -2 -19 -14z"/>
<path d="M2384 3694 c9 -35 26 -56 26 -31 0 20 9 21 33 3 18 -14 17 -15 -4
-21 -16 -5 -18 -9 -8 -15 7 -5 16 -7 20 -4 4 2 10 -5 14 -16 3 -11 10 -20 15
-20 6 0 5 11 -1 26 -5 15 -7 29 -5 31 3 3 1 16 -4 29 -8 19 -6 24 8 25 13 0
13 2 3 6 -8 3 -20 -2 -27 -12 -12 -16 -15 -16 -45 6 l-32 23 7 -30z"/>
<path d="M2886 3712 c-2 -4 -1 -14 5 -22 7 -12 9 -10 9 8 0 23 -5 28 -14 14z"/>
<path d="M2814 3664 c0 -19 4 -34 11 -34 7 0 10 12 7 30 -6 42 -17 45 -18 4z"/>
<path d="M3931 3690 c-12 -7 -9 -10 12 -15 16 -4 24 -12 20 -19 -3 -6 -3 -8 2
-4 4 4 14 3 22 -3 10 -9 13 -8 13 2 0 24 -17 42 -33 36 -9 -3 -17 -2 -19 3 -2
6 -9 6 -17 0z"/>
<path d="M3286 3669 c-15 -12 -25 -23 -22 -26 2 -3 17 7 33 21 33 31 26 34
-11 5z"/>
<path d="M2570 3659 c0 -6 -10 -10 -22 -9 -49 4 -55 1 -50 -25 2 -14 8 -25 13
-25 5 0 9 -4 9 -10 0 -5 10 -20 21 -31 17 -17 23 -19 30 -8 6 11 15 6 38 -21
17 -19 30 -29 31 -22 0 7 -7 15 -16 19 -12 4 -12 8 -3 13 15 10 -27 34 -46 26
-15 -5 -28 20 -18 36 3 6 2 9 -3 6 -5 -3 -17 3 -26 14 -10 10 -15 18 -10 19 4
0 20 2 36 2 27 2 52 27 27 27 -6 0 -11 -5 -11 -11z"/>
<path d="M2570 3595 c0 -9 9 -15 21 -15 18 0 19 2 9 15 -7 8 -16 15 -21 15 -5
0 -9 -7 -9 -15z"/>
<path d="M2630 3596 c0 -9 5 -16 10 -16 6 0 10 4 10 9 0 6 -4 13 -10 16 -5 3
-10 -1 -10 -9z"/>
<path d="M2810 3600 c-8 -5 -12 -11 -10 -14 3 -2 14 2 24 10 22 15 10 19 -14
4z"/>
<path d="M2685 3590 c-3 -5 -2 -10 4 -10 5 0 13 5 16 10 3 6 2 10 -4 10 -5 0
-13 -4 -16 -10z"/>
<path d="M2751 3584 c0 -11 3 -14 6 -6 3 7 2 16 -1 19 -3 4 -6 -2 -5 -13z"/>
<path d="M2640 3550 c0 -5 10 -10 23 -10 21 -1 22 -1 3 -15 -11 -8 -17 -15
-14 -15 4 0 13 -2 21 -5 19 -8 16 33 -4 46 -19 12 -29 11 -29 -1z"/>
<path d="M2753 3545 c6 -7 19 -10 29 -7 31 8 27 17 -7 18 -24 0 -30 -3 -22
-11z"/>
<path d="M2715 3500 c3 -6 20 -10 37 -10 38 0 34 5 -10 13 -21 4 -31 3 -27 -3z"/>
<path d="M2735 3460 c4 -6 11 -8 16 -5 14 9 11 15 -7 15 -8 0 -12 -5 -9 -10z"/>
<path d="M3163 3444 c-26 -30 -30 -42 -7 -24 14 12 39 50 32 50 -2 0 -13 -12
-25 -26z"/>
<path d="M3185 3420 c-10 -11 -15 -20 -11 -20 11 0 39 30 34 36 -3 2 -13 -5
-23 -16z"/>
<path d="M3900 3408 c-14 -5 -34 -11 -45 -13 -68 -10 -105 -18 -105 -24 0 -4
15 -6 33 -5 85 4 187 15 215 23 18 6 32 6 34 0 2 -5 9 -5 17 0 11 7 9 11 -9
21 -12 7 -25 8 -29 4 -8 -11 -74 -14 -81 -4 -3 4 -16 3 -30 -2z"/>
<path d="M3187 3372 c1 -8 3 -19 3 -25 0 -7 4 -6 10 3 12 19 13 33 1 26 -5 -4
-11 -3 -14 1 -2 5 -2 2 0 -5z"/>
<path d="M3216 3343 c-11 -11 -6 -23 9 -23 8 0 15 4 15 9 0 13 -16 22 -24 14z"/>
<path d="M378 3285 c-4 -20 -3 -23 8 -14 16 13 19 39 5 39 -5 0 -11 -11 -13
-25z"/>
<path d="M695 3300 c-3 -5 1 -10 10 -10 9 0 13 5 10 10 -3 6 -8 10 -10 10 -2
0 -7 -4 -10 -10z"/>
<path d="M3485 3257 c1 -12 6 -21 11 -20 15 3 15 19 1 31 -11 9 -13 7 -12 -11z"/>
<path d="M3330 3265 c0 -15 18 -40 24 -34 3 3 -1 14 -9 25 -8 10 -14 15 -15 9z"/>
<path d="M3576 3237 c-16 -12 -16 -13 2 -14 10 -1 19 5 19 13 0 17 1 17 -21 1z"/>
<path d="M4010 3232 c0 -5 -17 -26 -37 -48 -21 -21 -44 -49 -50 -62 -12 -22
-11 -22 20 5 36 31 92 113 77 113 -6 0 -10 -4 -10 -8z"/>
<path d="M3526 3205 c-11 -8 -15 -15 -9 -15 6 0 16 7 23 15 16 19 11 19 -14 0z"/>
<path d="M3305 3170 c-12 -20 5 -46 32 -48 19 -1 24 1 14 7 -9 6 -10 10 -2 16
9 5 9 10 0 21 -13 16 -35 18 -44 4z"/>
<path d="M4007 3146 c-4 -9 -2 -16 3 -16 16 0 -71 -75 -144 -124 -39 -25 -66
-46 -62 -46 19 0 92 46 140 88 30 26 67 56 82 66 20 14 24 21 13 24 -8 3 -17
9 -20 14 -3 5 -9 3 -12 -6z"/>
<path d="M3390 3101 c0 -26 4 -40 10 -36 6 4 8 10 5 15 -3 5 1 12 8 17 12 7
11 11 -4 27 -19 19 -19 19 -19 -23z"/>
<path d="M3445 3072 c6 -4 12 -16 13 -27 6 -32 12 -31 12 3 0 24 -4 32 -17 32
-10 0 -14 -4 -8 -8z"/>
<path d="M3759 3004 c-13 -15 -18 -25 -10 -22 13 4 49 48 39 48 -2 0 -15 -12
-29 -26z"/>
<path d="M3488 2993 c7 -3 16 -2 19 1 4 3 -2 6 -13 5 -11 0 -14 -3 -6 -6z"/>
<path d="M3566 2978 c3 -5 10 -6 15 -3 13 9 11 12 -6 12 -8 0 -12 -4 -9 -9z"/>
<path d="M4655 2970 c-3 -5 1 -10 9 -10 8 0 18 5 21 10 3 6 -1 10 -9 10 -8 0
-18 -4 -21 -10z"/>
<path d="M4560 2961 c0 -6 5 -13 10 -16 6 -3 10 1 10 9 0 9 -4 16 -10 16 -5 0
-10 -4 -10 -9z"/>
<path d="M4596 2925 c-3 -8 -1 -15 4 -15 6 0 10 7 10 15 0 8 -2 15 -4 15 -2 0
-6 -7 -10 -15z"/>
<path d="M4690 2916 c0 -9 5 -16 10 -16 6 0 10 4 10 9 0 6 -4 13 -10 16 -5 3
-10 -1 -10 -9z"/>
<path d="M4525 2865 c0 -14 6 -25 13 -25 6 0 12 4 12 8 0 5 -6 16 -12 25 -12
16 -13 15 -13 -8z"/>
<path d="M4625 2870 c-3 -5 -1 -10 4 -10 6 0 11 5 11 10 0 6 -2 10 -4 10 -3 0
-8 -4 -11 -10z"/>
<path d="M4470 2825 c0 -8 5 -15 10 -15 6 0 10 7 10 15 0 8 -4 15 -10 15 -5 0
-10 -7 -10 -15z"/>
<path d="M4551 2804 c0 -11 3 -14 6 -6 3 7 2 16 -1 19 -3 4 -6 -2 -5 -13z"/>
<path d="M4508 2793 c7 -3 16 -2 19 1 4 3 -2 6 -13 5 -11 0 -14 -3 -6 -6z"/>
<path d="M4465 2770 c3 -5 1 -10 -4 -10 -6 0 -11 -7 -11 -15 0 -8 5 -15 10
-15 6 0 10 4 10 9 0 5 3 16 6 25 3 9 1 16 -6 16 -6 0 -8 -4 -5 -10z"/>
<path d="M4485 2750 c-3 -6 1 -7 9 -4 18 7 21 14 7 14 -6 0 -13 -4 -16 -10z"/>
<path d="M3886 2663 c-6 -14 -5 -15 5 -6 7 7 10 15 7 18 -3 3 -9 -2 -12 -12z"/>
<path d="M3812 2650 c-6 -11 -12 -34 -12 -52 1 -32 1 -33 14 -10 10 19 15 21
23 10 12 -14 13 -17 13 -53 0 -15 6 -25 14 -25 8 0 14 -6 13 -12 -2 -53 5 -65
43 -87 22 -12 40 -25 40 -27 0 -3 -5 -2 -12 2 -8 5 -9 2 -5 -10 4 -10 7 -23 7
-30 0 -24 77 -66 117 -65 24 1 29 3 15 6 -12 2 -20 8 -17 13 3 5 1 11 -5 15
-5 3 -10 11 -10 18 0 8 3 8 12 -1 7 -7 16 -12 20 -12 4 0 0 8 -9 18 -10 10
-21 14 -24 9 -4 -6 -24 -6 -45 -3 -25 5 -33 10 -25 16 8 4 9 9 3 11 -5 2 -13
19 -17 36 -6 29 -4 32 12 26 10 -3 25 -12 35 -20 25 -22 34 5 9 28 -12 11 -21
15 -21 9 0 -16 -27 -12 -34 6 -9 24 -7 36 5 28 7 -4 7 1 -1 15 -8 16 -15 19
-23 13 -8 -7 -16 -5 -25 4 -11 12 -10 14 3 14 14 0 12 5 -7 29 -13 15 -26 27
-30 24 -4 -2 -5 2 -2 10 6 18 -15 34 -25 19 -4 -8 -11 -8 -21 -1 -11 8 -12 12
-3 15 12 5 7 34 -6 34 -3 0 -12 -9 -19 -20z"/>
<path d="M238 2548 c-10 -10 -18 -13 -18 -7 0 7 -11 0 -25 -15 -29 -31 -31
-43 -10 -43 8 0 15 4 15 9 0 4 3 7 8 7 20 -3 32 3 32 17 0 10 6 14 14 11 8 -3
17 1 20 9 3 8 9 14 13 13 18 -3 33 2 33 10 0 15 -64 6 -82 -11z"/>
<path d="M3801 2544 c0 -11 3 -14 6 -6 3 7 2 16 -1 19 -3 4 -6 -2 -5 -13z"/>
<path d="M4462 2431 c-21 -16 -23 -22 -16 -72 5 -29 7 -57 6 -61 -1 -5 1 -8 6
-8 7 0 36 40 37 52 0 3 3 9 6 13 4 3 3 23 -2 43 -4 20 -8 39 -8 40 1 11 -9 9
-29 -7z"/>
<path d="M4056 2395 c4 -8 13 -15 21 -15 12 0 12 2 -1 15 -8 8 -17 15 -20 15
-3 0 -3 -7 0 -15z"/>
<path d="M4370 2399 c0 -5 5 -7 10 -4 6 3 10 8 10 11 0 2 -4 4 -10 4 -5 0 -10
-5 -10 -11z"/>
<path d="M4020 2390 c0 -5 5 -10 11 -10 5 0 7 5 4 10 -3 6 -8 10 -11 10 -2 0
-4 -4 -4 -10z"/>
<path d="M4213 2273 c9 -2 25 -2 35 0 9 3 1 5 -18 5 -19 0 -27 -2 -17 -5z"/>
<path d="M4461 2254 c-1 -16 6 -39 15 -50 15 -19 16 -19 9 1 -4 11 -11 34 -15
50 l-8 30 -1 -31z"/>
<path d="M3983 2178 c-13 -6 -23 -18 -24 -27 0 -10 -2 -11 -6 -4 -5 14 -7 13
-74 -47 -26 -22 -46 -48 -45 -58 0 -9 -5 -16 -12 -14 -8 1 -11 -2 -7 -8 3 -5
-1 -10 -9 -10 -9 0 -16 -7 -16 -16 0 -8 -7 -22 -16 -31 -8 -9 -13 -21 -10 -29
3 -7 1 -14 -4 -16 -5 -2 -10 -23 -12 -48 -2 -25 -7 -48 -12 -51 -4 -4 -4 -14
1 -24 8 -13 17 -2 47 61 20 42 35 82 33 88 -7 19 11 56 28 56 8 0 15 9 15 19
0 11 11 31 24 45 26 29 38 33 30 11 -4 -8 9 -2 27 14 19 16 47 40 63 53 17 15
26 30 22 36 -9 14 -14 14 -43 0z"/>
<path d="M4505 2170 c3 -5 8 -10 11 -10 2 0 4 5 4 10 0 6 -5 10 -11 10 -5 0
-7 -4 -4 -10z"/>
<path d="M780 2020 c0 -5 5 -10 10 -10 6 0 10 5 10 10 0 6 -4 10 -10 10 -5 0
-10 -4 -10 -10z"/>
<path d="M210 1980 c-12 -8 -11 -10 7 -10 12 0 23 -6 26 -12 2 -7 3 -5 2 4 -2
9 2 19 9 22 6 2 2 5 -9 5 -11 0 -27 -4 -35 -9z"/>
<path d="M4075 1811 c-3 -5 -1 -12 5 -16 5 -3 10 1 10 9 0 18 -6 21 -15 7z"/>
<path d="M4120 1780 c-8 -5 -18 -6 -24 -3 -5 3 -6 1 -3 -4 7 -12 -16 -36 -27
-28 -3 3 -2 -1 4 -7 5 -7 10 -18 10 -26 0 -7 7 -20 15 -28 8 -9 15 -24 15 -34
0 -26 41 -87 63 -93 25 -7 21 0 -17 33 -30 27 -33 35 -29 69 4 32 1 41 -21 58
-26 21 -26 21 -4 26 12 4 25 3 28 -2 3 -4 14 0 24 10 16 16 17 19 4 19 -9 0
-18 4 -20 10 -2 6 -9 6 -18 0z"/>
<path d="M4276 1750 c8 -33 64 -92 64 -68 0 9 -10 25 -23 35 -13 10 -29 27
-36 38 -11 19 -11 18 -5 -5z"/>
<path d="M4196 1734 c-4 -11 -2 -15 8 -11 16 6 40 -16 29 -26 -3 -4 -1 -7 5
-7 19 0 14 38 -7 50 -26 13 -28 13 -35 -6z"/>
<path d="M4394 1572 c3 -18 13 -40 21 -48 11 -12 12 -20 5 -35 -8 -14 -6 -27
5 -49 17 -33 15 -34 -34 -20 -33 9 -33 9 -27 -20 3 -17 1 -30 -4 -30 -6 0 -10
-4 -10 -10 0 -21 -41 -50 -72 -51 -27 0 -29 -2 -13 -8 11 -5 41 -10 67 -13 36
-4 45 -2 41 8 -4 10 5 13 36 11 39 -3 71 -17 37 -17 -9 0 -14 -5 -11 -10 4 -6
15 -8 26 -5 10 3 28 8 39 11 11 3 20 1 20 -5 0 -5 -10 -11 -22 -13 -12 -2 -23
-9 -26 -16 -2 -8 3 -10 15 -6 14 5 15 4 4 -4 -8 -6 -29 -8 -46 -5 -23 4 -34 1
-38 -10 -4 -11 0 -14 16 -10 18 4 19 3 7 -6 -9 -7 -10 -11 -3 -11 6 0 14 4 17
9 3 4 17 6 30 4 28 -6 25 -33 -4 -33 -10 0 -23 -7 -30 -15 -11 -14 -10 -14 14
-5 15 5 37 10 49 10 12 0 35 7 51 15 15 8 34 15 42 15 7 0 15 4 19 9 3 6 -4 8
-17 6 -59 -11 -82 -14 -68 -9 8 4 22 15 30 25 17 21 60 31 77 17 12 -10 46 29
37 44 -3 4 -1 8 4 8 16 0 22 40 6 41 -27 3 -32 4 -40 12 -4 4 4 7 17 8 22 1
21 2 -10 15 -34 15 -57 10 -31 -6 20 -13 3 -12 -21 0 -15 8 -23 7 -35 -5 -9
-9 -29 -19 -45 -22 -15 -3 -28 -8 -27 -12 0 -3 0 -14 -1 -24 -1 -16 -3 -16
-26 -1 -22 14 -35 37 -41 72 -1 6 6 12 16 12 10 0 21 7 24 16 9 24 7 32 -6 30
-16 -1 -18 5 -18 44 0 20 5 30 15 30 18 0 20 -26 3 -37 -8 -5 2 -10 27 -14 49
-8 56 -4 21 12 -14 7 -26 17 -26 24 0 6 -10 20 -23 31 -12 11 -33 33 -45 49
l-23 30 5 -33z m232 -249 c21 -28 17 -53 -8 -53 -30 0 -84 43 -74 58 11 18 67
14 82 -5z m-86 -24 c0 -6 -4 -7 -10 -4 -5 3 -10 11 -10 16 0 6 5 7 10 4 6 -3
10 -11 10 -16z m20 -49 c0 -5 -4 -10 -10 -10 -5 0 -10 5 -10 10 0 6 5 10 10
10 6 0 10 -4 10 -10z"/>
<path d="M1517 1569 c7 -7 15 -10 18 -7 3 3 -2 9 -12 12 -14 6 -15 5 -6 -5z"/>
<path d="M3630 1560 c19 -13 30 -13 30 0 0 6 -10 10 -22 10 -19 0 -20 -2 -8
-10z"/>
<path d="M4364 1459 c-3 -6 -14 -9 -24 -6 -12 3 -17 0 -14 -8 7 -16 51 -7 51
11 0 17 -4 18 -13 3z"/>
<path d="M3707 1431 c-3 -15 1 -56 9 -92 8 -35 15 -72 17 -82 2 -15 8 -20 20
-16 1 0 24 2 50 4 42 4 47 2 37 -10 -7 -8 -19 -15 -26 -15 -8 0 -14 -4 -14 -9
0 -5 -11 -12 -25 -15 -25 -6 -25 -7 -10 -37 9 -16 19 -27 24 -25 18 11 61 -55
105 -157 25 -60 46 -116 47 -125 0 -13 2 -13 9 3 7 17 9 18 14 4 6 -13 19 -15
69 -12 34 2 72 4 85 5 12 0 22 6 22 13 0 7 10 16 23 19 22 6 22 7 2 21 -19 15
-19 16 8 41 15 13 27 20 27 15 0 -6 12 -8 30 -4 19 3 30 1 30 -6 0 -6 5 -11
10 -11 18 0 11 17 -12 29 -23 11 -23 11 -1 6 16 -4 30 2 51 24 22 24 31 28 41
18 9 -9 13 -7 17 9 3 12 22 30 43 40 l37 19 -115 0 c-93 1 -123 4 -150 19
l-35 18 30 13 c20 9 23 14 11 14 -10 1 -15 6 -12 11 4 6 -10 10 -34 10 -22 0
-52 5 -68 12 -15 6 -31 11 -35 10 -5 -1 -8 2 -8 8 0 5 -7 10 -15 10 -8 0 -15
5 -15 10 0 17 -89 108 -129 132 -20 12 -40 26 -46 30 -5 5 -33 24 -61 42 l-52
35 -5 -28z m88 -251 c-3 -5 -10 -10 -16 -10 -5 0 -9 5 -9 10 0 6 7 10 16 10 8
0 12 -4 9 -10z"/>
<path d="M4285 1410 c-3 -5 -1 -10 4 -10 6 0 11 5 11 10 0 6 -2 10 -4 10 -3 0
-8 -4 -11 -10z"/>
<path d="M556 1344 c-3 -8 -2 -12 4 -9 6 3 10 1 10 -4 0 -6 5 -11 10 -11 6 0
10 9 10 20 0 24 -25 27 -34 4z"/>
<path d="M4390 1280 c0 -11 7 -20 15 -20 8 0 15 6 15 14 0 8 -7 16 -15 20 -10
4 -15 -1 -15 -14z"/>
<path d="M4170 1279 c0 -7 -9 -9 -21 -6 -21 6 -20 5 2 -20 25 -26 73 -55 81
-48 2 2 4 -5 5 -16 2 -19 0 -20 -21 -6 -19 13 -23 13 -23 2 0 -19 21 -26 58
-18 22 4 27 8 17 15 -10 7 -9 10 5 19 9 5 17 18 16 27 0 11 -3 12 -6 4 -2 -6
-9 -10 -14 -6 -5 3 -9 1 -9 -4 0 -6 -9 -8 -21 -5 -16 4 -17 8 -7 14 10 7 8 9
-6 9 -15 0 -16 3 -6 15 13 15 14 14 -35 30 -8 2 -15 -1 -15 -6z"/>
<path d="M4243 1275 c0 -8 7 -15 15 -15 12 0 12 3 2 15 -7 8 -13 15 -15 15 -1
0 -2 -7 -2 -15z"/>
<path d="M4307 1234 c-8 -8 3 -34 14 -34 4 0 6 8 3 18 -5 15 -4 16 8 1 19 -24
58 -34 58 -16 0 20 -68 45 -83 31z"/>
<path d="M4290 1179 c0 -5 5 -7 10 -4 6 3 10 8 10 11 0 2 -4 4 -10 4 -5 0 -10
-5 -10 -11z"/>
<path d="M1410 1000 c0 -5 5 -10 10 -10 6 0 10 5 10 10 0 6 -4 10 -10 10 -5 0
-10 -4 -10 -10z"/>
<path d="M3836 595 c-16 -12 -21 -12 -28 -2 -6 9 -18 8 -55 -6 -61 -23 -123
-40 -145 -39 -10 0 -18 -4 -18 -10 0 -6 -10 -8 -25 -4 -30 8 -34 -10 -4 -19
12 -4 18 -10 13 -14 -5 -3 -10 -12 -12 -19 -2 -10 4 -11 19 -7 18 6 21 4 16
-9 -8 -20 7 -20 68 1 52 17 185 90 197 107 10 14 10 36 1 36 -5 0 -17 -7 -27
-15z"/>
</g>
</svg>
